<svg width="60" height="65" viewBox="0 0 60 65" fill="none" xmlns="http://www.w3.org/2000/svg">
<path d="M53.8753 53.0893L1.12964 53.7443L1.40584 64.6676L54.1515 64.0126L53.8753 53.0893Z" fill="#FDC00F"/>
<path d="M17.4514 53.6848L6.56799 53.8186L6.84282 64.5786L17.7262 64.4448L17.4514 53.6848Z" fill="#FFF2CF"/>
<path d="M21.2847 53.6223L19.0989 53.6497L19.3677 64.3737L21.5535 64.3464L21.2847 53.6223Z" fill="#FFF2CF"/>
<path d="M59.281 42.2829L6.5354 42.9379L6.8116 53.8612L59.5572 53.2062L59.281 42.2829Z" fill="#16B6C6"/>
<path d="M22.8679 42.8784L11.9845 43.0122L12.2593 53.7722L23.1427 53.6384L22.8679 42.8784Z" fill="#118995"/>
<path d="M26.7012 42.8158L24.5154 42.8432L24.7842 53.5673L26.97 53.5399L26.7012 42.8158Z" fill="#118995"/>
<path d="M57.0646 31.6111L4.31897 32.2661L4.59517 43.1893L57.3408 42.5344L57.0646 31.6111Z" fill="#184F78"/>
<path d="M20.6411 32.2066L9.75769 32.3404L10.0325 43.1004L20.9159 42.9666L20.6411 32.2066Z" fill="#D1DCE4"/>
<path d="M24.4851 32.1439L22.2993 32.1713L22.5681 42.8954L24.754 42.868L24.4851 32.1439Z" fill="#D1DCE4"/>
<path d="M38.7535 7.09476C35.7855 9.62876 30.696 9.56037 30.696 9.56037C30.696 9.56037 30.427 5.38052 33.4057 2.84639C36.3737 0.312382 41.4632 0.380771 41.4632 0.380771C41.4632 0.380771 41.7323 4.56062 38.7535 7.09476Z" fill="#184F78"/>
<path d="M40.1798 1.48979C40.1798 1.48979 39.7736 2.00634 39.0712 2.7171C38.3796 3.42773 37.4029 4.34247 36.382 5.21762C35.3612 6.09276 34.2853 6.91842 33.4403 7.52057C32.6061 8.12259 31.9912 8.47117 31.9912 8.47117C31.9912 8.47117 32.3974 7.9546 33.0998 7.24384C33.7914 6.53321 34.7682 5.61847 35.789 4.74332C36.8098 3.86818 37.8857 3.04252 38.7309 2.45039C39.5652 1.84837 40.1798 1.48979 40.1798 1.48979Z" fill="#467293"/>
<path d="M30.5784 9.35171C18.6934 6.67015 13.4602 13.996 15.8367 21.864C17.6988 28.0546 23.8124 33.5983 31.1172 31.7687C38.5162 33.4062 44.3488 27.7064 45.9122 21.471C47.9091 13.5459 42.338 6.36125 30.5784 9.35171Z" fill="#FC611F"/>
<path opacity="0.2" d="M1.12976 53.9031L53.9312 53.0895L53.9804 55.5038L1.12976 53.9031Z" fill="black"/>
<path opacity="0.2" d="M6.5354 43.0966L59.3477 42.2829L59.3969 44.6972L6.5354 43.0966Z" fill="black"/>
<path opacity="0.3" d="M24.437 31.4286C24.3594 30.8103 24.3137 30.1714 24.3005 29.5321C24.1089 20.3017 30.1421 12.3263 38.8313 9.00712C36.5748 8.51165 33.8331 8.57311 30.6211 9.39114C18.7195 6.74329 13.4502 14.0577 15.8051 21.8963C17.0471 26.0645 20.2373 29.9233 24.437 31.4286Z" fill="white"/>
</svg>
