<svg width="1440" height="1024" viewBox="0 0 1440 1024" fill="none" xmlns="http://www.w3.org/2000/svg">
<g clip-path="url(#clip0_100_199)">
<rect width="1440" height="1024" fill="white"/>
<g filter="url(#filter0_f_100_199)">
<path fill-rule="evenodd" clip-rule="evenodd" d="M234.846 483.432C338.655 498.895 377.268 591.143 465.352 632.936C545.261 670.851 708.722 648.354 723.998 715.518C742.455 796.663 554.023 834.789 529.538 915.134C512.668 970.49 616.214 1013.97 615.789 1070.59C615.252 1142.34 610.638 1232.11 526.86 1272.63C444.833 1312.3 331.671 1270.7 234.846 1254.84C154.847 1241.73 87.4519 1210.76 11.767 1188.24C-75.7901 1162.18 -192.049 1166.59 -246.536 1111.58C-300.643 1056.95 -273.097 981.039 -258.757 915.134C-245.887 855.986 -198.836 806.468 -168.021 750.73C-131.273 684.259 -133.138 603.594 -59.5227 554.752C17.4161 503.704 131.589 468.051 234.846 483.432Z" fill="#6756C3"/>
<path fill-rule="evenodd" clip-rule="evenodd" d="M216.395 -97.8855C305.766 -84.0741 318.109 6.30035 381.568 52.8747C423.842 83.9008 474.079 105.812 525.477 128.956C626.582 174.483 791.441 175.013 830.64 255.088C864.697 324.659 762.971 399.884 679.795 444.194C603.273 484.959 479.859 442.993 402.636 483.094C309.5 531.458 325.402 657.694 216.395 684.832C118.478 709.209 22.7251 638.815 -64.9265 599.497C-149.671 561.482 -268.94 529.803 -285.254 459.803C-302.985 383.715 -196.007 323.324 -145.19 255.088C-116.626 216.732 -74.3424 186 -51.4097 145.801C-23.3759 96.6592 -42.4881 36.2924 3.49829 -5.55234C55.4593 -52.8336 133.647 -110.673 216.395 -97.8855Z" fill="#31295D"/>
<path fill-rule="evenodd" clip-rule="evenodd" d="M620.552 188.146C683.674 190.499 742.085 164.396 804.962 168.964C891.138 175.226 986.52 177.907 1050.27 219.369C1117.19 262.894 1138.91 331.128 1152.08 394.729C1166.55 464.634 1210.82 561.287 1129.6 602.463C1031.98 651.947 880.958 543.727 776.195 585.274C673.627 625.951 722.1 762.405 620.552 804.342C528 842.564 389.501 827.171 306.45 779.269C222.24 730.698 201.652 641.25 204.643 564.455C207.135 500.477 284.052 453.024 321.427 394.729C342.587 361.724 362.242 330.068 377.144 295.398C397.304 248.496 365.71 180.718 424.562 154.787C482.575 129.225 552.285 185.602 620.552 188.146Z" fill="#31295D"/>
<path fill-rule="evenodd" clip-rule="evenodd" d="M795.739 780.345C887.425 810.788 842.807 941.227 937.808 966.078C1065.07 999.368 1233.77 855.267 1332.81 920.836C1416.25 976.077 1200.01 1059.2 1200.51 1140.01C1201.01 1221.41 1365.05 1281.6 1335.52 1360.28C1308.39 1432.57 1168.03 1446.55 1073.09 1479.55C983.705 1510.63 888.389 1573.78 795.739 1547.93C693.009 1519.26 681.231 1419.1 621.351 1353.5C589.223 1318.31 546.836 1289.5 524.434 1250.72C504.069 1215.47 524.932 1172.99 498.011 1140.01C430.669 1057.51 237.82 1013.29 253.386 918.681C265.788 843.304 446.942 862.383 547.929 836.624C630.954 815.447 715.848 753.819 795.739 780.345Z" fill="#972E7C"/>
<path fill-rule="evenodd" clip-rule="evenodd" d="M1110.86 340.397C1198.59 374.772 1372.26 341.973 1389.91 412.169C1407.7 482.898 1223.71 499.883 1166.38 561.181C1128.93 601.225 1169.26 662.917 1122.63 697.951C1076.19 732.839 995.943 722.24 931.98 737.293C859.214 754.418 787.665 815.052 719.688 792.782C648.182 769.356 702.545 668.519 635.04 640.013C520.82 591.779 288.132 681.213 244.592 592.153C204.383 509.908 481.445 502.023 527.051 419.124C569.789 341.438 423.197 257.193 470.869 180.844C515.069 110.056 643.631 48.3032 749.28 63.2158C869.569 80.1947 902.413 190.376 984.566 253.353C1025.11 284.432 1058.36 319.828 1110.86 340.397Z" fill="#6756C3"/>
<path fill-rule="evenodd" clip-rule="evenodd" d="M1087.58 109.847C1150.34 110.963 1211.08 102.681 1272.71 111.149C1354.57 122.397 1442.7 128.456 1505.46 167.267C1575.88 210.806 1670.81 275.547 1639.26 337.798C1602.75 409.826 1411.03 381.584 1362.22 449.874C1308.46 525.089 1484.58 655.289 1381.79 697.991C1279.47 740.503 1201.65 587.174 1087.58 563.972C1017.51 549.72 944.667 614.901 877.203 595.353C811.121 576.205 817.437 503.129 763.473 470.061C671.445 413.668 478.187 422.563 456.9 337.798C437.52 260.63 600.755 222.359 689.457 175.331C751.981 142.181 820.866 116.989 896.99 104.468C959.99 94.1062 1022.92 108.697 1087.58 109.847Z" fill="#972E7C"/>
<path fill-rule="evenodd" clip-rule="evenodd" d="M1185.63 458.121C1298.62 452.054 1272.87 612.204 1367.49 656.287C1452.96 696.111 1604.86 624.996 1667.11 682.446C1725.67 736.5 1619.37 811.265 1608.72 878.932C1599.56 937.163 1633.79 995.798 1609.01 1051.71C1581.17 1114.52 1539.83 1180.94 1459.89 1214.7C1379.78 1248.52 1268.08 1261.35 1185.63 1230.48C1100.23 1198.5 1111.34 1103.36 1039.84 1057.41C990.184 1025.51 906.789 1041.88 851.054 1015.46C775.183 979.502 693.602 939.842 663.286 878.932C630.41 812.877 603.565 716.908 680.508 672.801C769.676 621.687 920.656 716.813 1019.05 674.996C1120.51 631.872 1067.57 464.46 1185.63 458.121Z" fill="#31295D"/>
<path fill-rule="evenodd" clip-rule="evenodd" d="M1464.08 -171.439C1565.58 -130.819 1519.53 7.62675 1624.45 43.6478C1743.14 84.3918 1904.98 -38.3581 2011.64 16.5396C2098.31 61.1526 2060.62 174.811 2005.92 239.99C1951.51 304.81 1807.92 296.334 1732.23 349.419C1684.1 383.174 1717.06 454.194 1661.42 481.586C1606.51 508.621 1530.97 482.768 1464.08 481.438C1399.22 480.148 1335.32 486.721 1273.04 473.863C1199.12 458.602 1119.29 442.83 1071.18 400.325C1021.31 356.269 982.707 293.422 1008.34 239.99C1034.99 184.414 1179.3 189.012 1199.81 132.148C1233.19 39.6195 1077.15 -65.7118 1147.94 -147.039C1204.45 -211.96 1370.23 -208.994 1464.08 -171.439Z" fill="#6756C3"/>
<path fill-rule="evenodd" clip-rule="evenodd" d="M1625.63 311.865C1711.19 325.126 1758.2 390.3 1807.63 441.404C1843.04 478.004 1840 525.561 1870.02 564.49C1899.01 602.073 1978.01 621.429 1979.49 664.222C1980.97 706.794 1898.12 726.922 1877.03 766.813C1849.75 818.428 1886.65 882.842 1840.46 927.229C1791.52 974.264 1705.84 994.425 1625.63 1008.4C1531.38 1024.82 1429.42 1040.37 1339.51 1014.5C1246.56 987.764 1135.74 936.954 1130.94 866.098C1125.42 784.645 1305.44 745.439 1315.79 664.222C1324.65 594.74 1161.95 550.915 1179.86 482.311C1195.78 421.39 1313.77 406.278 1390.86 376.802C1466.06 348.05 1542.12 298.92 1625.63 311.865Z" fill="#972E7C"/>
<path fill-rule="evenodd" clip-rule="evenodd" d="M162.703 -228.331C261.994 -236.91 365.732 -292.275 454.365 -259.5C542.238 -227.006 549.156 -139.627 581.669 -73.405C609.086 -17.5623 662.123 43.0904 629.673 97.5683C595.719 154.569 469.135 151.583 417.814 201.675C374.679 243.776 412.701 308.921 369.848 351.166C319.964 400.341 244.444 471.146 162.703 453.161C68.2674 432.383 109.445 301.661 18.673 273.898C-92.1493 240.003 -238.336 351.625 -335.37 300.824C-413.872 259.725 -327.24 166.318 -318.132 97.5683C-309.903 35.4544 -324.937 -29.4657 -284.276 -84.8371C-242.906 -141.175 -172.266 -186.17 -90.5013 -212.418C-12.0142 -237.615 77.1373 -220.937 162.703 -228.331Z" fill="#972E7C"/>
<path fill-rule="evenodd" clip-rule="evenodd" d="M1188.34 227.41C1134.42 248.084 1086.88 272.138 1033.59 293.603C936.424 332.737 852.283 427.76 744.743 406.076C647.463 386.461 665.409 278.464 628.432 211.91C598.374 157.808 561.095 107.708 547.146 50.4265C531.599 -13.4185 507.058 -80.8703 542.594 -140.587C578.894 -201.586 659.726 -243.644 741.398 -276C820.746 -307.435 910.745 -326.888 1001.48 -322.382C1088.11 -318.081 1169.15 -289.665 1237.04 -251.387C1298.5 -216.729 1339.76 -167.927 1367.58 -115.946C1392.22 -69.908 1387.43 -20.6578 1386.86 28.5618C1386.31 75.7482 1402.77 128.24 1364.27 166.796C1326.01 205.126 1246.68 205.038 1188.34 227.41Z" fill="#31295D"/>
</g>
<path d="M995.984 307.867C995.984 312.034 995.822 314.931 995.496 316.559C995.171 318.186 994.389 319 993.152 319H964.832C962.879 319 961.674 318.219 961.219 316.656C960.698 315.029 960.438 312.132 960.438 307.965V297.613C960.438 293.382 960.698 290.484 961.219 288.922C961.674 287.294 962.879 286.48 964.832 286.48H993.152C994.389 286.48 995.171 287.327 995.496 289.02C995.822 290.647 995.984 293.577 995.984 297.809V307.867ZM1023.33 307.867C1023.33 312.034 1023.17 314.931 1022.84 316.559C1022.51 318.186 1021.73 319 1020.5 319H992.176C990.223 319 989.018 318.219 988.562 316.656C988.042 315.029 987.781 312.132 987.781 307.965V297.613C987.781 293.382 988.042 290.484 988.562 288.922C989.018 287.294 990.223 286.48 992.176 286.48H1020.5C1021.73 286.48 1022.51 287.327 1022.84 289.02C1023.17 290.647 1023.33 293.577 1023.33 297.809V307.867ZM1050.67 307.867C1050.67 312.034 1050.51 314.931 1050.18 316.559C1049.86 318.186 1049.08 319 1047.84 319H1019.52C1017.57 319 1016.36 318.219 1015.91 316.656C1015.39 315.029 1015.12 312.132 1015.12 307.965V297.613C1015.12 293.382 1015.39 290.484 1015.91 288.922C1016.36 287.294 1017.57 286.48 1019.52 286.48H1047.84C1049.08 286.48 1049.86 287.327 1050.18 289.02C1050.51 290.647 1050.67 293.577 1050.67 297.809V307.867ZM1078.02 307.867C1078.02 312.034 1077.85 314.931 1077.53 316.559C1077.2 318.186 1076.42 319 1075.18 319H1046.86C1044.91 319 1043.71 318.219 1043.25 316.656C1042.73 315.029 1042.47 312.132 1042.47 307.965V297.613C1042.47 293.382 1042.73 290.484 1043.25 288.922C1043.71 287.294 1044.91 286.48 1046.86 286.48H1075.18C1076.42 286.48 1077.2 287.327 1077.53 289.02C1077.85 290.647 1078.02 293.577 1078.02 297.809V307.867ZM1105.36 307.867C1105.36 312.034 1105.2 314.931 1104.87 316.559C1104.55 318.186 1103.76 319 1102.53 319H1074.21C1072.25 319 1071.05 318.219 1070.59 316.656C1070.07 315.029 1069.81 312.132 1069.81 307.965V297.613C1069.81 293.382 1070.07 290.484 1070.59 288.922C1071.05 287.294 1072.25 286.48 1074.21 286.48H1102.53C1103.76 286.48 1104.55 287.327 1104.87 289.02C1105.2 290.647 1105.36 293.577 1105.36 297.809V307.867ZM1132.7 307.867C1132.7 312.034 1132.54 314.931 1132.21 316.559C1131.89 318.186 1131.11 319 1129.87 319H1101.55C1099.6 319 1098.39 318.219 1097.94 316.656C1097.42 315.029 1097.16 312.132 1097.16 307.965V297.613C1097.16 293.382 1097.42 290.484 1097.94 288.922C1098.39 287.294 1099.6 286.48 1101.55 286.48H1129.87C1131.11 286.48 1131.89 287.327 1132.21 289.02C1132.54 290.647 1132.7 293.577 1132.7 297.809V307.867ZM1161.61 371.789V361.633V361.34L1161.9 361.145L1206.34 342.98L1207.02 342.785V343.469V353.527V353.82L1206.73 354.016L1162.29 372.277L1161.61 372.473V371.789ZM1128.89 286.48H1135.93C1150.38 286.48 1160.8 286.253 1167.18 285.797C1173.56 285.341 1178.21 284.202 1181.14 282.379C1174.5 272.483 1164.28 266.689 1150.48 264.996L1150.38 250.25C1163.07 245.693 1175.8 243.414 1188.56 243.414C1197.94 243.414 1205.2 244.716 1210.34 247.32C1215.55 249.924 1218.15 253.798 1218.15 258.941C1218.15 265.842 1213.69 273.622 1204.77 282.281C1207.83 284.104 1211.25 285.276 1215.03 285.797C1218.87 286.253 1224.3 286.48 1231.34 286.48H1233.29C1234.46 286.48 1235.24 287.783 1235.63 290.387C1236.02 292.991 1236.22 297.288 1236.22 303.277V303.961C1236.22 309.365 1236.02 313.238 1235.63 315.582C1235.24 317.861 1234.46 319 1233.29 319H1227.04C1218.84 319 1211.93 317.828 1206.34 315.484C1200.74 313.076 1195.46 309.137 1190.52 303.668C1184.4 308.876 1177.04 312.75 1168.45 315.289C1159.85 317.763 1150.77 319 1141.2 319H1128.89C1126.94 319 1125.74 318.219 1125.28 316.656C1124.76 315.029 1124.5 312.132 1124.5 307.965V297.613C1124.5 293.382 1124.76 290.484 1125.28 288.922C1125.74 287.294 1126.94 286.48 1128.89 286.48ZM1264.83 222.262V212.105V211.812L1265.12 211.617L1309.66 193.453L1310.34 193.258V193.941V204.098V204.391L1310.05 204.586L1265.52 222.75L1264.83 222.945V222.262ZM1232.41 286.48H1236.02C1243.05 286.48 1248.65 285.797 1252.82 284.43C1257.05 282.997 1260.24 280.426 1262.39 276.715C1262.85 275.999 1263.66 274.632 1264.83 272.613C1266.07 270.53 1266.98 268.967 1267.57 267.926C1268.15 266.884 1269.06 265.387 1270.3 263.434C1271.6 261.415 1272.64 259.853 1273.43 258.746C1274.27 257.639 1275.35 256.24 1276.65 254.547C1278.02 252.854 1279.22 251.52 1280.26 250.543C1281.37 249.566 1282.64 248.492 1284.07 247.32C1285.5 246.083 1286.87 245.172 1288.17 244.586C1289.47 243.935 1290.91 243.414 1292.47 243.023C1294.03 242.568 1295.59 242.34 1297.16 242.34C1302.49 242.34 1307.35 244.358 1311.71 248.395C1316.13 252.431 1319.52 257.639 1321.86 264.02C1324.27 270.335 1325.48 277.008 1325.48 284.039C1325.48 294.13 1323.17 302.464 1318.54 309.039C1313.92 315.549 1307.57 318.805 1299.5 318.805C1291.56 318.805 1280.42 314.182 1266.1 304.938C1262.72 309.951 1258.52 313.564 1253.5 315.777C1248.56 317.926 1242.47 319 1235.24 319H1232.41C1230.46 319 1229.25 318.219 1228.8 316.656C1228.28 315.029 1228.02 312.132 1228.02 307.965V297.613C1228.02 293.382 1228.28 290.484 1228.8 288.922C1229.25 287.294 1230.46 286.48 1232.41 286.48ZM1304.09 289.117C1306.04 289.117 1307.74 288.661 1309.17 287.75C1310.6 286.773 1311.32 285.439 1311.32 283.746C1311.32 279.84 1309.04 275.966 1304.48 272.125C1299.99 268.284 1296.31 266.363 1293.45 266.363C1290.19 266.363 1287.36 267.438 1284.95 269.586C1282.54 271.734 1280.13 274.599 1277.72 278.18C1289.51 285.471 1298.3 289.117 1304.09 289.117Z" fill="white"/>
<g filter="url(#filter1_d_100_199)">
<path d="M223.973 235.797L240.184 252.008L223.973 268.219L207.762 252.008L223.973 235.797ZM279.051 274.664C280.874 278.049 282.632 280.556 284.324 282.184C286.017 283.746 288.198 284.853 290.867 285.504C293.536 286.155 297.312 286.48 302.195 286.48H306.297C307.534 286.48 308.315 287.327 308.641 289.02C308.966 290.647 309.129 293.577 309.129 297.809V307.867C309.129 312.034 308.966 314.931 308.641 316.559C308.315 318.186 307.534 319 306.297 319H303.172C299.656 319 296.759 318.707 294.48 318.121C292.267 317.535 289.923 316.526 287.449 315.094C287.319 325.315 285.724 334.397 282.664 342.34C279.604 350.348 275.307 356.891 269.773 361.969C264.24 367.112 257.697 370.986 250.145 373.59C242.592 376.259 234.161 377.594 224.852 377.594C188.523 377.594 170.359 363.596 170.359 335.602C170.359 323.557 173.842 309.527 180.809 293.512L189.598 297.223C186.017 306.142 184.227 314.02 184.227 320.855C184.227 329.905 187.807 336.546 194.969 340.777C202.195 345.074 211.863 347.223 223.973 347.223C235.301 347.223 245.457 345.66 254.441 342.535C263.426 339.41 270.294 334.918 275.047 329.059C269.122 312.522 262.677 298.622 255.711 287.359L267.723 267.242C268.504 266.005 269.057 265.126 269.383 264.605C269.773 264.085 270.229 263.661 270.75 263.336C271.271 262.945 271.759 262.945 272.215 263.336C272.671 263.661 273.191 264.312 273.777 265.289C274.689 266.721 276.447 269.846 279.051 274.664ZM328.758 353.18L313.23 368.707L297.801 353.18L313.23 337.652L328.758 353.18ZM330.32 353.18L345.75 337.652L361.277 353.18L345.75 368.707L330.32 353.18ZM305.418 286.48H320.066C339.402 286.48 349.201 280.686 349.461 269.098L349.754 258.941H361.18L361.766 268.707C361.896 271.116 362.026 272.939 362.156 274.176C362.286 275.413 362.579 276.845 363.035 278.473C363.491 280.1 364.109 281.305 364.891 282.086C365.737 282.867 366.876 283.648 368.309 284.43C369.741 285.211 371.531 285.764 373.68 286.09C375.893 286.35 378.53 286.48 381.59 286.48H383.836C385.073 286.48 385.854 287.327 386.18 289.02C386.57 290.712 386.766 293.642 386.766 297.809V307.867C386.766 311.969 386.57 314.866 386.18 316.559C385.854 318.186 385.073 319 383.836 319H381.688C375.698 319 370.652 317.73 366.551 315.191C362.514 312.652 358.999 308.909 356.004 303.961C352.553 308.714 347.638 312.424 341.258 315.094C334.878 317.698 327.586 319 319.383 319H305.418C303.465 319 302.26 318.219 301.805 316.656C301.284 315.029 301.023 312.132 301.023 307.965V297.613C301.023 293.382 301.284 290.484 301.805 288.922C302.26 287.294 303.465 286.48 305.418 286.48ZM414.012 307.867C414.012 312.034 413.849 314.931 413.523 316.559C413.198 318.186 412.417 319 411.18 319H382.859C380.906 319 379.702 318.219 379.246 316.656C378.725 315.029 378.465 312.132 378.465 307.965V297.613C378.465 293.382 378.725 290.484 379.246 288.922C379.702 287.294 380.906 286.48 382.859 286.48H411.18C412.417 286.48 413.198 287.327 413.523 289.02C413.849 290.647 414.012 293.577 414.012 297.809V307.867ZM441.355 307.867C441.355 312.034 441.193 314.931 440.867 316.559C440.542 318.186 439.76 319 438.523 319H410.203C408.25 319 407.046 318.219 406.59 316.656C406.069 315.029 405.809 312.132 405.809 307.965V297.613C405.809 293.382 406.069 290.484 406.59 288.922C407.046 287.294 408.25 286.48 410.203 286.48H438.523C439.76 286.48 440.542 287.327 440.867 289.02C441.193 290.647 441.355 293.577 441.355 297.809V307.867ZM468.699 307.867C468.699 312.034 468.536 314.931 468.211 316.559C467.885 318.186 467.104 319 465.867 319H437.547C435.594 319 434.389 318.219 433.934 316.656C433.413 315.029 433.152 312.132 433.152 307.965V297.613C433.152 293.382 433.413 290.484 433.934 288.922C434.389 287.294 435.594 286.48 437.547 286.48H465.867C467.104 286.48 467.885 287.327 468.211 289.02C468.536 290.647 468.699 293.577 468.699 297.809V307.867ZM496.043 307.867C496.043 312.034 495.88 314.931 495.555 316.559C495.229 318.186 494.448 319 493.211 319H464.891C462.938 319 461.733 318.219 461.277 316.656C460.757 315.029 460.496 312.132 460.496 307.965V297.613C460.496 293.382 460.757 290.484 461.277 288.922C461.733 287.294 462.938 286.48 464.891 286.48H493.211C494.448 286.48 495.229 287.327 495.555 289.02C495.88 290.647 496.043 293.577 496.043 297.809V307.867Z" fill="white"/>
</g>
<path d="M995.883 587.867C995.883 592.034 995.72 594.931 995.395 596.559C995.069 598.186 994.288 599 993.051 599H964.73C962.777 599 961.573 598.219 961.117 596.656C960.596 595.029 960.336 592.132 960.336 587.965V577.613C960.336 573.382 960.596 570.484 961.117 568.922C961.573 567.294 962.777 566.48 964.73 566.48H993.051C994.288 566.48 995.069 567.327 995.395 569.02C995.72 570.647 995.883 573.577 995.883 577.809V587.867ZM1023.23 587.867C1023.23 592.034 1023.06 594.931 1022.74 596.559C1022.41 598.186 1021.63 599 1020.39 599H992.074C990.121 599 988.917 598.219 988.461 596.656C987.94 595.029 987.68 592.132 987.68 587.965V577.613C987.68 573.382 987.94 570.484 988.461 568.922C988.917 567.294 990.121 566.48 992.074 566.48H1020.39C1021.63 566.48 1022.41 567.327 1022.74 569.02C1023.06 570.647 1023.23 573.577 1023.23 577.809V587.867ZM1050.57 587.867C1050.57 592.034 1050.41 594.931 1050.08 596.559C1049.76 598.186 1048.98 599 1047.74 599H1019.42C1017.46 599 1016.26 598.219 1015.8 596.656C1015.28 595.029 1015.02 592.132 1015.02 587.965V577.613C1015.02 573.382 1015.28 570.484 1015.8 568.922C1016.26 567.294 1017.46 566.48 1019.42 566.48H1047.74C1048.98 566.48 1049.76 567.327 1050.08 569.02C1050.41 570.647 1050.57 573.577 1050.57 577.809V587.867ZM1077.91 587.867C1077.91 592.034 1077.75 594.931 1077.43 596.559C1077.1 598.186 1076.32 599 1075.08 599H1046.76C1044.81 599 1043.6 598.219 1043.15 596.656C1042.63 595.029 1042.37 592.132 1042.37 587.965V577.613C1042.37 573.382 1042.63 570.484 1043.15 568.922C1043.6 567.294 1044.81 566.48 1046.76 566.48H1075.08C1076.32 566.48 1077.1 567.327 1077.43 569.02C1077.75 570.647 1077.91 573.577 1077.91 577.809V587.867ZM1105.26 587.867C1105.26 592.034 1105.1 594.931 1104.77 596.559C1104.44 598.186 1103.66 599 1102.43 599H1074.11C1072.15 599 1070.95 598.219 1070.49 596.656C1069.97 595.029 1069.71 592.132 1069.71 587.965V577.613C1069.71 573.382 1069.97 570.484 1070.49 568.922C1070.95 567.294 1072.15 566.48 1074.11 566.48H1102.43C1103.66 566.48 1104.44 567.327 1104.77 569.02C1105.1 570.647 1105.26 573.577 1105.26 577.809V587.867ZM1132.6 587.867C1132.6 592.034 1132.44 594.931 1132.11 596.559C1131.79 598.186 1131.01 599 1129.77 599H1101.45C1099.5 599 1098.29 598.219 1097.84 596.656C1097.32 595.029 1097.05 592.132 1097.05 587.965V577.613C1097.05 573.382 1097.32 570.484 1097.84 568.922C1098.29 567.294 1099.5 566.48 1101.45 566.48H1129.77C1131.01 566.48 1131.79 567.327 1132.11 569.02C1132.44 570.647 1132.6 573.577 1132.6 577.809V587.867ZM1159.95 587.867C1159.95 592.034 1159.78 594.931 1159.46 596.559C1159.13 598.186 1158.35 599 1157.11 599H1128.79C1126.84 599 1125.64 598.219 1125.18 596.656C1124.66 595.029 1124.4 592.132 1124.4 587.965V577.613C1124.4 573.382 1124.66 570.484 1125.18 568.922C1125.64 567.294 1126.84 566.48 1128.79 566.48H1157.11C1158.35 566.48 1159.13 567.327 1159.46 569.02C1159.78 570.647 1159.95 573.577 1159.95 577.809V587.867ZM1156.14 566.48H1183.09C1177.69 561.402 1174.98 555.055 1174.98 547.438C1174.98 540.602 1176.68 533.863 1180.06 527.223C1183.45 520.517 1188.27 514.951 1194.52 510.523C1200.83 506.031 1207.67 503.785 1215.02 503.785C1229.09 503.785 1240.09 511.858 1248.03 528.004L1242.76 534.254C1234.88 530.543 1227.2 528.688 1219.71 528.688C1215.93 528.688 1211.74 529.404 1207.11 530.836C1202.56 532.268 1198.49 534.384 1194.91 537.184C1191.39 539.918 1189.63 542.88 1189.63 546.07C1189.63 546.982 1191.78 549.163 1196.08 552.613C1200.44 556.064 1204.18 558.766 1207.31 560.719C1208.68 561.565 1210.08 561.891 1211.51 561.695C1216 561.044 1225.15 559.254 1238.95 556.324L1253.11 553.297C1255.52 552.841 1257.15 553.069 1257.99 553.98C1258.84 554.892 1258.77 556.357 1257.8 558.375L1245.98 582.594C1230.29 588.323 1215.97 592.49 1203.01 595.094C1190.06 597.698 1176.77 599 1163.17 599H1156.14C1154.18 599 1152.98 598.219 1152.52 596.656C1152 595.029 1151.74 592.132 1151.74 587.965V577.613C1151.74 573.382 1152 570.484 1152.52 568.922C1152.98 567.294 1154.18 566.48 1156.14 566.48Z" fill="white"/>
<path d="M190.945 563.648C204.812 563.779 218.582 565.243 232.254 568.043C229.389 561.988 225.776 557.04 221.414 553.199C217.117 549.358 212.169 547.438 206.57 547.438C204.096 547.438 201.655 548.544 199.246 550.758C196.902 552.971 195.112 555.185 193.875 557.398C192.638 559.547 191.661 561.63 190.945 563.648ZM234.109 595.094C232.026 596.852 229.389 597.73 226.199 597.73C224.572 597.73 222.977 597.6 221.414 597.34C205.073 595.061 194.266 593.922 188.992 593.922C183.784 593.922 179.52 594.443 176.199 595.484L178.934 635.816C179.259 640.829 178.543 645.777 176.785 650.66C175.027 655.608 172.195 661.077 168.289 667.066C165.49 671.298 163.602 673.414 162.625 673.414C161.779 673.414 161.29 670.517 161.16 664.723L160.184 613.453V610.719C160.184 586.63 166.564 571.07 179.324 564.039C184.402 536.174 194.07 522.242 208.328 522.242C214.448 522.242 220.405 524.618 226.199 529.371C232.059 534.124 236.746 540.243 240.262 547.73C243.842 555.152 245.633 562.672 245.633 570.289C245.633 580.576 241.792 588.844 234.109 595.094ZM369.949 415.059C369.949 410.827 369.721 407.344 369.266 404.609V404.512L369.363 404.316C369.819 403.34 370.34 402.656 370.926 402.266C371.772 401.68 372.586 401.582 373.367 401.973C374.214 402.298 375.027 403.047 375.809 404.219L375.906 404.316V404.414C376.622 409.492 376.98 413.431 376.98 416.23C376.98 422.676 375.809 427.526 373.465 430.781C371.186 433.971 367.768 435.566 363.211 435.566C357.742 435.566 353.901 433.776 351.688 430.195C350.581 434.297 348.725 437.389 346.121 439.473C343.517 441.556 340.229 442.598 336.258 442.598C331.961 442.598 328.738 441.198 326.59 438.398C324.441 435.599 323.335 431.465 323.27 425.996C323.27 424.824 323.302 423.587 323.367 422.285C323.497 420.983 323.66 419.583 323.855 418.086C324.051 416.523 324.279 414.896 324.539 413.203V413.105L324.637 413.008C325.418 411.706 326.199 410.892 326.98 410.566C328.543 409.785 329.91 410.632 331.082 413.105L331.18 413.301V413.398C330.529 418.021 330.203 421.048 330.203 422.48C330.203 428.535 332.514 431.562 337.137 431.562C340.066 431.562 342.312 430.553 343.875 428.535C345.438 426.517 346.284 423.424 346.414 419.258C346.544 416.458 346.577 412.65 346.512 407.832V407.637L346.609 407.539C347.391 406.562 348.107 405.879 348.758 405.488C349.344 405.163 349.897 405.065 350.418 405.195C350.939 405.26 351.395 405.521 351.785 405.977C352.241 406.367 352.664 406.921 353.055 407.637L353.152 407.734V407.832C353.152 409.004 353.152 410.046 353.152 410.957C353.217 411.803 353.25 412.454 353.25 412.91C353.25 413.301 353.25 413.529 353.25 413.594V413.691C353.25 415.97 353.576 417.891 354.227 419.453C354.943 420.951 355.984 422.09 357.352 422.871C358.719 423.587 360.477 423.978 362.625 424.043C367.508 424.043 369.949 421.048 369.949 415.059ZM361.648 452.125L364.871 546.656C365.066 553.232 366.271 558.18 368.484 561.5C370.763 564.82 374.669 566.48 380.203 566.48H384.012C385.184 566.48 385.965 567.783 386.355 570.387C386.746 572.991 386.941 577.288 386.941 583.277V583.961C386.941 589.365 386.746 593.238 386.355 595.582C385.965 597.861 385.184 599 384.012 599H380.203C362.169 599 352.339 586.272 350.711 560.816C333.589 586.207 315.262 598.902 295.73 598.902C293.061 598.902 289.773 597.926 285.867 595.973L262.43 584.254C261.062 583.603 260.118 582.757 259.598 581.715C259.142 580.673 259.37 579.697 260.281 578.785C261.193 577.809 262.853 577.158 265.262 576.832C287.202 574.098 303.999 569.182 315.652 562.086C305.822 532.854 289.35 504.404 266.238 476.734L279.031 450.66C292.052 468.564 302.664 486.37 310.867 504.078C319.135 521.786 325.223 538.225 329.129 553.395C334.077 549.553 338.113 545.615 341.238 541.578C344.363 537.542 345.926 534.319 345.926 531.91C345.926 517.652 343.322 495.81 338.113 466.383L353.934 449.684C354.845 448.772 355.496 448.121 355.887 447.73C356.277 447.275 356.766 446.754 357.352 446.168C358.003 445.582 358.458 445.257 358.719 445.191C358.979 445.061 359.305 444.964 359.695 444.898C360.086 444.768 360.346 444.898 360.477 445.289C360.672 445.615 360.867 446.07 361.062 446.656C361.258 447.177 361.388 447.893 361.453 448.805C361.518 449.716 361.583 450.823 361.648 452.125ZM414.285 587.867C414.285 592.034 414.122 594.931 413.797 596.559C413.471 598.186 412.69 599 411.453 599H383.133C381.18 599 379.975 598.219 379.52 596.656C378.999 595.029 378.738 592.132 378.738 587.965V577.613C378.738 573.382 378.999 570.484 379.52 568.922C379.975 567.294 381.18 566.48 383.133 566.48H411.453C412.69 566.48 413.471 567.327 413.797 569.02C414.122 570.647 414.285 573.577 414.285 577.809V587.867ZM441.629 587.867C441.629 592.034 441.466 594.931 441.141 596.559C440.815 598.186 440.034 599 438.797 599H410.477C408.523 599 407.319 598.219 406.863 596.656C406.342 595.029 406.082 592.132 406.082 587.965V577.613C406.082 573.382 406.342 570.484 406.863 568.922C407.319 567.294 408.523 566.48 410.477 566.48H438.797C440.034 566.48 440.815 567.327 441.141 569.02C441.466 570.647 441.629 573.577 441.629 577.809V587.867ZM468.973 587.867C468.973 592.034 468.81 594.931 468.484 596.559C468.159 598.186 467.378 599 466.141 599H437.82C435.867 599 434.663 598.219 434.207 596.656C433.686 595.029 433.426 592.132 433.426 587.965V577.613C433.426 573.382 433.686 570.484 434.207 568.922C434.663 567.294 435.867 566.48 437.82 566.48H466.141C467.378 566.48 468.159 567.327 468.484 569.02C468.81 570.647 468.973 573.577 468.973 577.809V587.867ZM496.316 587.867C496.316 592.034 496.154 594.931 495.828 596.559C495.503 598.186 494.721 599 493.484 599H465.164C463.211 599 462.007 598.219 461.551 596.656C461.03 595.029 460.77 592.132 460.77 587.965V577.613C460.77 573.382 461.03 570.484 461.551 568.922C462.007 567.294 463.211 566.48 465.164 566.48H493.484C494.721 566.48 495.503 567.327 495.828 569.02C496.154 570.647 496.316 573.577 496.316 577.809V587.867Z" fill="white"/>
<g filter="url(#filter2_f_100_199)">
<path d="M488.398 308.867C488.398 313.034 488.236 315.931 487.91 317.559C487.585 319.186 486.803 320 485.566 320H457.246C455.293 320 454.089 319.219 453.633 317.656C453.112 316.029 452.852 313.132 452.852 308.965V298.613C452.852 294.382 453.112 291.484 453.633 289.922C454.089 288.294 455.293 287.48 457.246 287.48H485.566C486.803 287.48 487.585 288.327 487.91 290.02C488.236 291.647 488.398 294.577 488.398 298.809V308.867ZM515.742 308.867C515.742 313.034 515.579 315.931 515.254 317.559C514.928 319.186 514.147 320 512.91 320H484.59C482.637 320 481.432 319.219 480.977 317.656C480.456 316.029 480.195 313.132 480.195 308.965V298.613C480.195 294.382 480.456 291.484 480.977 289.922C481.432 288.294 482.637 287.48 484.59 287.48H512.91C514.147 287.48 514.928 288.327 515.254 290.02C515.579 291.647 515.742 294.577 515.742 298.809V308.867ZM543.086 308.867C543.086 313.034 542.923 315.931 542.598 317.559C542.272 319.186 541.491 320 540.254 320H511.934C509.98 320 508.776 319.219 508.32 317.656C507.799 316.029 507.539 313.132 507.539 308.965V298.613C507.539 294.382 507.799 291.484 508.32 289.922C508.776 288.294 509.98 287.48 511.934 287.48H540.254C541.491 287.48 542.272 288.327 542.598 290.02C542.923 291.647 543.086 294.577 543.086 298.809V308.867ZM570.43 308.867C570.43 313.034 570.267 315.931 569.941 317.559C569.616 319.186 568.835 320 567.598 320H539.277C537.324 320 536.12 319.219 535.664 317.656C535.143 316.029 534.883 313.132 534.883 308.965V298.613C534.883 294.382 535.143 291.484 535.664 289.922C536.12 288.294 537.324 287.48 539.277 287.48H567.598C568.835 287.48 569.616 288.327 569.941 290.02C570.267 291.647 570.43 294.577 570.43 298.809V308.867ZM597.773 308.867C597.773 313.034 597.611 315.931 597.285 317.559C596.96 319.186 596.178 320 594.941 320H566.621C564.668 320 563.464 319.219 563.008 317.656C562.487 316.029 562.227 313.132 562.227 308.965V298.613C562.227 294.382 562.487 291.484 563.008 289.922C563.464 288.294 564.668 287.48 566.621 287.48H594.941C596.178 287.48 596.96 288.327 597.285 290.02C597.611 291.647 597.773 294.577 597.773 298.809V308.867ZM625.117 308.867C625.117 313.034 624.954 315.931 624.629 317.559C624.303 319.186 623.522 320 622.285 320H593.965C592.012 320 590.807 319.219 590.352 317.656C589.831 316.029 589.57 313.132 589.57 308.965V298.613C589.57 294.382 589.831 291.484 590.352 289.922C590.807 288.294 592.012 287.48 593.965 287.48H622.285C623.522 287.48 624.303 288.327 624.629 290.02C624.954 291.647 625.117 294.577 625.117 298.809V308.867ZM652.461 308.867C652.461 313.034 652.298 315.931 651.973 317.559C651.647 319.186 650.866 320 649.629 320H621.309C619.355 320 618.151 319.219 617.695 317.656C617.174 316.029 616.914 313.132 616.914 308.965V298.613C616.914 294.382 617.174 291.484 617.695 289.922C618.151 288.294 619.355 287.48 621.309 287.48H649.629C650.866 287.48 651.647 288.327 651.973 290.02C652.298 291.647 652.461 294.577 652.461 298.809V308.867ZM679.805 308.867C679.805 313.034 679.642 315.931 679.316 317.559C678.991 319.186 678.21 320 676.973 320H648.652C646.699 320 645.495 319.219 645.039 317.656C644.518 316.029 644.258 313.132 644.258 308.965V298.613C644.258 294.382 644.518 291.484 645.039 289.922C645.495 288.294 646.699 287.48 648.652 287.48H676.973C678.21 287.48 678.991 288.327 679.316 290.02C679.642 291.647 679.805 294.577 679.805 298.809V308.867ZM707.148 308.867C707.148 313.034 706.986 315.931 706.66 317.559C706.335 319.186 705.553 320 704.316 320H675.996C674.043 320 672.839 319.219 672.383 317.656C671.862 316.029 671.602 313.132 671.602 308.965V298.613C671.602 294.382 671.862 291.484 672.383 289.922C672.839 288.294 674.043 287.48 675.996 287.48H704.316C705.553 287.48 706.335 288.327 706.66 290.02C706.986 291.647 707.148 294.577 707.148 298.809V308.867ZM734.492 308.867C734.492 313.034 734.329 315.931 734.004 317.559C733.678 319.186 732.897 320 731.66 320H703.34C701.387 320 700.182 319.219 699.727 317.656C699.206 316.029 698.945 313.132 698.945 308.965V298.613C698.945 294.382 699.206 291.484 699.727 289.922C700.182 288.294 701.387 287.48 703.34 287.48H731.66C732.897 287.48 733.678 288.327 734.004 290.02C734.329 291.647 734.492 294.577 734.492 298.809V308.867ZM761.836 308.867C761.836 313.034 761.673 315.931 761.348 317.559C761.022 319.186 760.241 320 759.004 320H730.684C728.73 320 727.526 319.219 727.07 317.656C726.549 316.029 726.289 313.132 726.289 308.965V298.613C726.289 294.382 726.549 291.484 727.07 289.922C727.526 288.294 728.73 287.48 730.684 287.48H759.004C760.241 287.48 761.022 288.327 761.348 290.02C761.673 291.647 761.836 294.577 761.836 298.809V308.867ZM789.18 308.867C789.18 313.034 789.017 315.931 788.691 317.559C788.366 319.186 787.585 320 786.348 320H758.027C756.074 320 754.87 319.219 754.414 317.656C753.893 316.029 753.633 313.132 753.633 308.965V298.613C753.633 294.382 753.893 291.484 754.414 289.922C754.87 288.294 756.074 287.48 758.027 287.48H786.348C787.585 287.48 788.366 288.327 788.691 290.02C789.017 291.647 789.18 294.577 789.18 298.809V308.867ZM816.523 308.867C816.523 313.034 816.361 315.931 816.035 317.559C815.71 319.186 814.928 320 813.691 320H785.371C783.418 320 782.214 319.219 781.758 317.656C781.237 316.029 780.977 313.132 780.977 308.965V298.613C780.977 294.382 781.237 291.484 781.758 289.922C782.214 288.294 783.418 287.48 785.371 287.48H813.691C814.928 287.48 815.71 288.327 816.035 290.02C816.361 291.647 816.523 294.577 816.523 298.809V308.867ZM843.867 308.867C843.867 313.034 843.704 315.931 843.379 317.559C843.053 319.186 842.272 320 841.035 320H812.715C810.762 320 809.557 319.219 809.102 317.656C808.581 316.029 808.32 313.132 808.32 308.965V298.613C808.32 294.382 808.581 291.484 809.102 289.922C809.557 288.294 810.762 287.48 812.715 287.48H841.035C842.272 287.48 843.053 288.327 843.379 290.02C843.704 291.647 843.867 294.577 843.867 298.809V308.867ZM871.211 308.867C871.211 313.034 871.048 315.931 870.723 317.559C870.397 319.186 869.616 320 868.379 320H840.059C838.105 320 836.901 319.219 836.445 317.656C835.924 316.029 835.664 313.132 835.664 308.965V298.613C835.664 294.382 835.924 291.484 836.445 289.922C836.901 288.294 838.105 287.48 840.059 287.48H868.379C869.616 287.48 870.397 288.327 870.723 290.02C871.048 291.647 871.211 294.577 871.211 298.809V308.867ZM898.555 308.867C898.555 313.034 898.392 315.931 898.066 317.559C897.741 319.186 896.96 320 895.723 320H867.402C865.449 320 864.245 319.219 863.789 317.656C863.268 316.029 863.008 313.132 863.008 308.965V298.613C863.008 294.382 863.268 291.484 863.789 289.922C864.245 288.294 865.449 287.48 867.402 287.48H895.723C896.96 287.48 897.741 288.327 898.066 290.02C898.392 291.647 898.555 294.577 898.555 298.809V308.867ZM925.898 308.867C925.898 313.034 925.736 315.931 925.41 317.559C925.085 319.186 924.303 320 923.066 320H894.746C892.793 320 891.589 319.219 891.133 317.656C890.612 316.029 890.352 313.132 890.352 308.965V298.613C890.352 294.382 890.612 291.484 891.133 289.922C891.589 288.294 892.793 287.48 894.746 287.48H923.066C924.303 287.48 925.085 288.327 925.41 290.02C925.736 291.647 925.898 294.577 925.898 298.809V308.867ZM953.242 308.867C953.242 313.034 953.079 315.931 952.754 317.559C952.428 319.186 951.647 320 950.41 320H922.09C920.137 320 918.932 319.219 918.477 317.656C917.956 316.029 917.695 313.132 917.695 308.965V298.613C917.695 294.382 917.956 291.484 918.477 289.922C918.932 288.294 920.137 287.48 922.09 287.48H950.41C951.647 287.48 952.428 288.327 952.754 290.02C953.079 291.647 953.242 294.577 953.242 298.809V308.867ZM980.586 308.867C980.586 313.034 980.423 315.931 980.098 317.559C979.772 319.186 978.991 320 977.754 320H949.434C947.48 320 946.276 319.219 945.82 317.656C945.299 316.029 945.039 313.132 945.039 308.965V298.613C945.039 294.382 945.299 291.484 945.82 289.922C946.276 288.294 947.48 287.48 949.434 287.48H977.754C978.991 287.48 979.772 288.327 980.098 290.02C980.423 291.647 980.586 294.577 980.586 298.809V308.867Z" fill="white"/>
</g>
<g filter="url(#filter3_f_100_199)">
<path d="M523.742 587.867C523.742 592.034 523.579 594.931 523.254 596.559C522.928 598.186 522.147 599 520.91 599H492.59C490.637 599 489.432 598.219 488.977 596.656C488.456 595.029 488.195 592.132 488.195 587.965V577.613C488.195 573.382 488.456 570.484 488.977 568.922C489.432 567.294 490.637 566.48 492.59 566.48H520.91C522.147 566.48 522.928 567.327 523.254 569.02C523.579 570.647 523.742 573.577 523.742 577.809V587.867ZM551.086 587.867C551.086 592.034 550.923 594.931 550.598 596.559C550.272 598.186 549.491 599 548.254 599H519.934C517.98 599 516.776 598.219 516.32 596.656C515.799 595.029 515.539 592.132 515.539 587.965V577.613C515.539 573.382 515.799 570.484 516.32 568.922C516.776 567.294 517.98 566.48 519.934 566.48H548.254C549.491 566.48 550.272 567.327 550.598 569.02C550.923 570.647 551.086 573.577 551.086 577.809V587.867ZM578.43 587.867C578.43 592.034 578.267 594.931 577.941 596.559C577.616 598.186 576.835 599 575.598 599H547.277C545.324 599 544.12 598.219 543.664 596.656C543.143 595.029 542.883 592.132 542.883 587.965V577.613C542.883 573.382 543.143 570.484 543.664 568.922C544.12 567.294 545.324 566.48 547.277 566.48H575.598C576.835 566.48 577.616 567.327 577.941 569.02C578.267 570.647 578.43 573.577 578.43 577.809V587.867ZM605.773 587.867C605.773 592.034 605.611 594.931 605.285 596.559C604.96 598.186 604.178 599 602.941 599H574.621C572.668 599 571.464 598.219 571.008 596.656C570.487 595.029 570.227 592.132 570.227 587.965V577.613C570.227 573.382 570.487 570.484 571.008 568.922C571.464 567.294 572.668 566.48 574.621 566.48H602.941C604.178 566.48 604.96 567.327 605.285 569.02C605.611 570.647 605.773 573.577 605.773 577.809V587.867ZM633.117 587.867C633.117 592.034 632.954 594.931 632.629 596.559C632.303 598.186 631.522 599 630.285 599H601.965C600.012 599 598.807 598.219 598.352 596.656C597.831 595.029 597.57 592.132 597.57 587.965V577.613C597.57 573.382 597.831 570.484 598.352 568.922C598.807 567.294 600.012 566.48 601.965 566.48H630.285C631.522 566.48 632.303 567.327 632.629 569.02C632.954 570.647 633.117 573.577 633.117 577.809V587.867ZM660.461 587.867C660.461 592.034 660.298 594.931 659.973 596.559C659.647 598.186 658.866 599 657.629 599H629.309C627.355 599 626.151 598.219 625.695 596.656C625.174 595.029 624.914 592.132 624.914 587.965V577.613C624.914 573.382 625.174 570.484 625.695 568.922C626.151 567.294 627.355 566.48 629.309 566.48H657.629C658.866 566.48 659.647 567.327 659.973 569.02C660.298 570.647 660.461 573.577 660.461 577.809V587.867ZM687.805 587.867C687.805 592.034 687.642 594.931 687.316 596.559C686.991 598.186 686.21 599 684.973 599H656.652C654.699 599 653.495 598.219 653.039 596.656C652.518 595.029 652.258 592.132 652.258 587.965V577.613C652.258 573.382 652.518 570.484 653.039 568.922C653.495 567.294 654.699 566.48 656.652 566.48H684.973C686.21 566.48 686.991 567.327 687.316 569.02C687.642 570.647 687.805 573.577 687.805 577.809V587.867ZM715.148 587.867C715.148 592.034 714.986 594.931 714.66 596.559C714.335 598.186 713.553 599 712.316 599H683.996C682.043 599 680.839 598.219 680.383 596.656C679.862 595.029 679.602 592.132 679.602 587.965V577.613C679.602 573.382 679.862 570.484 680.383 568.922C680.839 567.294 682.043 566.48 683.996 566.48H712.316C713.553 566.48 714.335 567.327 714.66 569.02C714.986 570.647 715.148 573.577 715.148 577.809V587.867ZM742.492 587.867C742.492 592.034 742.329 594.931 742.004 596.559C741.678 598.186 740.897 599 739.66 599H711.34C709.387 599 708.182 598.219 707.727 596.656C707.206 595.029 706.945 592.132 706.945 587.965V577.613C706.945 573.382 707.206 570.484 707.727 568.922C708.182 567.294 709.387 566.48 711.34 566.48H739.66C740.897 566.48 741.678 567.327 742.004 569.02C742.329 570.647 742.492 573.577 742.492 577.809V587.867ZM769.836 587.867C769.836 592.034 769.673 594.931 769.348 596.559C769.022 598.186 768.241 599 767.004 599H738.684C736.73 599 735.526 598.219 735.07 596.656C734.549 595.029 734.289 592.132 734.289 587.965V577.613C734.289 573.382 734.549 570.484 735.07 568.922C735.526 567.294 736.73 566.48 738.684 566.48H767.004C768.241 566.48 769.022 567.327 769.348 569.02C769.673 570.647 769.836 573.577 769.836 577.809V587.867ZM797.18 587.867C797.18 592.034 797.017 594.931 796.691 596.559C796.366 598.186 795.585 599 794.348 599H766.027C764.074 599 762.87 598.219 762.414 596.656C761.893 595.029 761.633 592.132 761.633 587.965V577.613C761.633 573.382 761.893 570.484 762.414 568.922C762.87 567.294 764.074 566.48 766.027 566.48H794.348C795.585 566.48 796.366 567.327 796.691 569.02C797.017 570.647 797.18 573.577 797.18 577.809V587.867ZM824.523 587.867C824.523 592.034 824.361 594.931 824.035 596.559C823.71 598.186 822.928 599 821.691 599H793.371C791.418 599 790.214 598.219 789.758 596.656C789.237 595.029 788.977 592.132 788.977 587.965V577.613C788.977 573.382 789.237 570.484 789.758 568.922C790.214 567.294 791.418 566.48 793.371 566.48H821.691C822.928 566.48 823.71 567.327 824.035 569.02C824.361 570.647 824.523 573.577 824.523 577.809V587.867ZM851.867 587.867C851.867 592.034 851.704 594.931 851.379 596.559C851.053 598.186 850.272 599 849.035 599H820.715C818.762 599 817.557 598.219 817.102 596.656C816.581 595.029 816.32 592.132 816.32 587.965V577.613C816.32 573.382 816.581 570.484 817.102 568.922C817.557 567.294 818.762 566.48 820.715 566.48H849.035C850.272 566.48 851.053 567.327 851.379 569.02C851.704 570.647 851.867 573.577 851.867 577.809V587.867ZM879.211 587.867C879.211 592.034 879.048 594.931 878.723 596.559C878.397 598.186 877.616 599 876.379 599H848.059C846.105 599 844.901 598.219 844.445 596.656C843.924 595.029 843.664 592.132 843.664 587.965V577.613C843.664 573.382 843.924 570.484 844.445 568.922C844.901 567.294 846.105 566.48 848.059 566.48H876.379C877.616 566.48 878.397 567.327 878.723 569.02C879.048 570.647 879.211 573.577 879.211 577.809V587.867ZM906.555 587.867C906.555 592.034 906.392 594.931 906.066 596.559C905.741 598.186 904.96 599 903.723 599H875.402C873.449 599 872.245 598.219 871.789 596.656C871.268 595.029 871.008 592.132 871.008 587.965V577.613C871.008 573.382 871.268 570.484 871.789 568.922C872.245 567.294 873.449 566.48 875.402 566.48H903.723C904.96 566.48 905.741 567.327 906.066 569.02C906.392 570.647 906.555 573.577 906.555 577.809V587.867ZM933.898 587.867C933.898 592.034 933.736 594.931 933.41 596.559C933.085 598.186 932.303 599 931.066 599H902.746C900.793 599 899.589 598.219 899.133 596.656C898.612 595.029 898.352 592.132 898.352 587.965V577.613C898.352 573.382 898.612 570.484 899.133 568.922C899.589 567.294 900.793 566.48 902.746 566.48H931.066C932.303 566.48 933.085 567.327 933.41 569.02C933.736 570.647 933.898 573.577 933.898 577.809V587.867ZM961.242 587.867C961.242 592.034 961.079 594.931 960.754 596.559C960.428 598.186 959.647 599 958.41 599H930.09C928.137 599 926.932 598.219 926.477 596.656C925.956 595.029 925.695 592.132 925.695 587.965V577.613C925.695 573.382 925.956 570.484 926.477 568.922C926.932 567.294 928.137 566.48 930.09 566.48H958.41C959.647 566.48 960.428 567.327 960.754 569.02C961.079 570.647 961.242 573.577 961.242 577.809V587.867Z" fill="white"/>
</g>
<rect width="22.8595" height="45.2655" rx="11.4297" transform="matrix(0.821943 -0.569569 0.494032 0.869444 93.8011 80.3232)" fill="white"/>
<rect width="22.8804" height="45.2276" rx="11.4402" transform="matrix(0.82027 0.571976 -0.495851 0.868407 89.3242 37.165)" fill="white"/>
<rect width="24.5101" height="42.049" rx="12.2551" transform="matrix(0.000512342 1 -1 -0.000173075 97.3213 91.376)" fill="white"/>
</g>
<defs>
<filter id="filter0_f_100_199" x="-568" y="-523.028" width="2831" height="2277.03" filterUnits="userSpaceOnUse" color-interpolation-filters="sRGB">
<feFlood flood-opacity="0" result="BackgroundImageFix"/>
<feBlend mode="normal" in="SourceGraphic" in2="BackgroundImageFix" result="shape"/>
<feGaussianBlur stdDeviation="100" result="effect1_foregroundBlur_100_199"/>
</filter>
<filter id="filter1_d_100_199" x="166.359" y="235.797" width="333.684" height="149.797" filterUnits="userSpaceOnUse" color-interpolation-filters="sRGB">
<feFlood flood-opacity="0" result="BackgroundImageFix"/>
<feColorMatrix in="SourceAlpha" type="matrix" values="0 0 0 0 0 0 0 0 0 0 0 0 0 0 0 0 0 0 127 0" result="hardAlpha"/>
<feOffset dy="4"/>
<feGaussianBlur stdDeviation="2"/>
<feComposite in2="hardAlpha" operator="out"/>
<feColorMatrix type="matrix" values="0 0 0 0 0 0 0 0 0 0 0 0 0 0 0 0 0 0 0.25 0"/>
<feBlend mode="normal" in2="BackgroundImageFix" result="effect1_dropShadow_100_199"/>
<feBlend mode="normal" in="SourceGraphic" in2="effect1_dropShadow_100_199" result="shape"/>
</filter>
<filter id="filter2_f_100_199" x="402.852" y="237.48" width="627.734" height="132.52" filterUnits="userSpaceOnUse" color-interpolation-filters="sRGB">
<feFlood flood-opacity="0" result="BackgroundImageFix"/>
<feBlend mode="normal" in="SourceGraphic" in2="BackgroundImageFix" result="shape"/>
<feGaussianBlur stdDeviation="25" result="effect1_foregroundBlur_100_199"/>
</filter>
<filter id="filter3_f_100_199" x="438.195" y="516.48" width="573.047" height="132.52" filterUnits="userSpaceOnUse" color-interpolation-filters="sRGB">
<feFlood flood-opacity="0" result="BackgroundImageFix"/>
<feBlend mode="normal" in="SourceGraphic" in2="BackgroundImageFix" result="shape"/>
<feGaussianBlur stdDeviation="25" result="effect1_foregroundBlur_100_199"/>
</filter>
<clipPath id="clip0_100_199">
<rect width="1440" height="1024" fill="white"/>
</clipPath>
</defs>
</svg>
