<svg width="1512" height="851" viewBox="0 0 1512 851" fill="none" xmlns="http://www.w3.org/2000/svg">
<g clip-path="url(#clip0_155_69)">
<rect width="1512" height="851" fill="white"/>
<g filter="url(#filter0_f_155_69)">
<path fill-rule="evenodd" clip-rule="evenodd" d="M258.846 509.432C362.655 524.895 401.268 617.143 489.352 658.936C569.261 696.851 732.722 674.354 747.998 741.518C766.455 822.663 578.023 860.789 553.538 941.134C536.668 996.49 640.214 1039.97 639.789 1096.59C639.252 1168.34 634.638 1258.11 550.86 1298.63C468.833 1338.3 355.671 1296.7 258.846 1280.84C178.847 1267.73 111.452 1236.76 35.7669 1214.24C-51.7902 1188.18 -168.049 1192.59 -222.536 1137.58C-276.643 1082.95 -249.097 1007.04 -234.757 941.134C-221.887 881.986 -174.836 832.468 -144.021 776.73C-107.273 710.259 -109.138 629.594 -35.5228 580.752C41.416 529.704 155.589 494.051 258.846 509.432Z" fill="#6756C3"/>
<path fill-rule="evenodd" clip-rule="evenodd" d="M240.395 -71.8855C329.766 -58.0741 342.109 32.3003 405.568 78.8747C447.842 109.901 498.079 131.812 549.477 154.956C650.582 200.483 815.441 201.013 854.64 281.088C888.697 350.659 786.971 425.884 703.795 470.194C627.273 510.959 503.859 468.993 426.636 509.094C333.5 557.458 349.402 683.694 240.395 710.832C142.478 735.209 46.7251 664.815 -40.9265 625.497C-125.671 587.482 -244.94 555.803 -261.254 485.803C-278.985 409.715 -172.007 349.324 -121.19 281.088C-92.6257 242.732 -50.3424 212 -27.4097 171.801C0.624115 122.659 -18.4881 62.2924 27.4983 20.4477C79.4593 -26.8336 157.647 -84.6734 240.395 -71.8855Z" fill="#31295D"/>
<path fill-rule="evenodd" clip-rule="evenodd" d="M644.552 214.146C707.674 216.499 766.085 190.396 828.962 194.964C915.138 201.226 1010.52 203.907 1074.27 245.369C1141.19 288.894 1162.91 357.128 1176.08 420.729C1190.55 490.634 1234.82 587.287 1153.6 628.463C1055.98 677.947 904.958 569.727 800.195 611.274C697.627 651.951 746.1 788.405 644.552 830.342C552 868.564 413.501 853.171 330.45 805.269C246.24 756.698 225.652 667.25 228.643 590.455C231.135 526.477 308.052 479.024 345.427 420.729C366.587 387.724 386.242 356.068 401.144 321.398C421.304 274.496 389.71 206.718 448.562 180.787C506.575 155.225 576.285 211.602 644.552 214.146Z" fill="#31295D"/>
<path fill-rule="evenodd" clip-rule="evenodd" d="M819.739 806.345C911.425 836.788 866.807 967.227 961.808 992.078C1089.07 1025.37 1257.77 881.267 1356.81 946.836C1440.25 1002.08 1224.01 1085.2 1224.51 1166.01C1225.01 1247.41 1389.05 1307.6 1359.52 1386.28C1332.39 1458.57 1192.03 1472.55 1097.09 1505.55C1007.71 1536.63 912.389 1599.78 819.739 1573.93C717.009 1545.26 705.231 1445.1 645.351 1379.5C613.223 1344.31 570.836 1315.5 548.434 1276.72C528.069 1241.47 548.932 1198.99 522.011 1166.01C454.669 1083.51 261.82 1039.29 277.386 944.681C289.788 869.304 470.942 888.383 571.929 862.624C654.954 841.447 739.848 779.819 819.739 806.345Z" fill="#972E7C"/>
<path fill-rule="evenodd" clip-rule="evenodd" d="M1134.86 366.397C1222.59 400.772 1396.26 367.973 1413.91 438.169C1431.7 508.898 1247.71 525.883 1190.38 587.181C1152.93 627.225 1193.26 688.917 1146.63 723.951C1100.19 758.839 1019.94 748.24 955.98 763.293C883.214 780.418 811.665 841.052 743.688 818.782C672.182 795.356 726.545 694.519 659.04 666.013C544.82 617.779 312.132 707.213 268.592 618.153C228.383 535.908 505.445 528.023 551.051 445.124C593.789 367.438 447.197 283.193 494.869 206.844C539.069 136.056 667.631 74.3032 773.28 89.2158C893.569 106.195 926.413 216.376 1008.57 279.353C1049.11 310.432 1082.36 345.828 1134.86 366.397Z" fill="#6756C3"/>
<path fill-rule="evenodd" clip-rule="evenodd" d="M1111.58 135.847C1174.34 136.963 1235.08 128.681 1296.71 137.149C1378.57 148.397 1466.7 154.456 1529.46 193.267C1599.88 236.806 1694.81 301.547 1663.26 363.798C1626.75 435.826 1435.03 407.584 1386.22 475.874C1332.46 551.089 1508.58 681.289 1405.79 723.991C1303.47 766.503 1225.65 613.174 1111.58 589.972C1041.51 575.72 968.667 640.901 901.203 621.353C835.121 602.205 841.437 529.129 787.473 496.061C695.445 439.668 502.187 448.563 480.9 363.798C461.52 286.63 624.755 248.359 713.457 201.331C775.981 168.181 844.866 142.989 920.99 130.468C983.99 120.106 1046.92 134.697 1111.58 135.847Z" fill="#972E7C"/>
<path fill-rule="evenodd" clip-rule="evenodd" d="M1209.63 484.121C1322.62 478.054 1296.87 638.204 1391.49 682.287C1476.96 722.111 1628.86 650.996 1691.11 708.446C1749.67 762.5 1643.37 837.265 1632.72 904.932C1623.56 963.163 1657.79 1021.8 1633.01 1077.71C1605.17 1140.52 1563.83 1206.94 1483.89 1240.7C1403.78 1274.52 1292.08 1287.35 1209.63 1256.48C1124.23 1224.5 1135.34 1129.36 1063.84 1083.41C1014.18 1051.51 930.789 1067.88 875.054 1041.46C799.183 1005.5 717.602 965.842 687.286 904.932C654.41 838.877 627.565 742.908 704.508 698.801C793.676 647.687 944.656 742.813 1043.05 700.996C1144.51 657.872 1091.57 490.46 1209.63 484.121Z" fill="#31295D"/>
<path fill-rule="evenodd" clip-rule="evenodd" d="M1488.08 -145.439C1589.58 -104.819 1543.53 33.6268 1648.45 69.6478C1767.14 110.392 1928.98 -12.3581 2035.64 42.5396C2122.31 87.1526 2084.62 200.811 2029.92 265.99C1975.51 330.81 1831.92 322.334 1756.23 375.419C1708.1 409.174 1741.06 480.194 1685.42 507.586C1630.51 534.621 1554.97 508.768 1488.08 507.438C1423.22 506.148 1359.32 512.721 1297.04 499.863C1223.12 484.602 1143.29 468.83 1095.18 426.325C1045.31 382.269 1006.71 319.422 1032.34 265.99C1058.99 210.414 1203.3 215.012 1223.81 158.148C1257.19 65.6195 1101.15 -39.7118 1171.94 -121.039C1228.45 -185.96 1394.23 -182.994 1488.08 -145.439Z" fill="#6756C3"/>
<path fill-rule="evenodd" clip-rule="evenodd" d="M1649.63 337.865C1735.19 351.126 1782.2 416.3 1831.63 467.404C1867.04 504.004 1864 551.561 1894.02 590.49C1923.01 628.073 2002.01 647.429 2003.49 690.222C2004.97 732.794 1922.12 752.922 1901.03 792.813C1873.75 844.428 1910.65 908.842 1864.46 953.229C1815.52 1000.26 1729.84 1020.43 1649.63 1034.4C1555.38 1050.82 1453.42 1066.37 1363.51 1040.5C1270.56 1013.76 1159.74 962.954 1154.94 892.098C1149.42 810.645 1329.44 771.439 1339.79 690.222C1348.65 620.74 1185.95 576.915 1203.86 508.311C1219.78 447.39 1337.77 432.278 1414.86 402.802C1490.06 374.05 1566.12 324.92 1649.63 337.865Z" fill="#972E7C"/>
<path fill-rule="evenodd" clip-rule="evenodd" d="M186.703 -202.331C285.994 -210.91 389.732 -266.275 478.365 -233.5C566.238 -201.006 573.156 -113.627 605.669 -47.405C633.086 8.4377 686.123 69.0904 653.673 123.568C619.719 180.569 493.135 177.583 441.814 227.675C398.679 269.776 436.701 334.921 393.848 377.166C343.964 426.341 268.444 497.146 186.703 479.161C92.2674 458.383 133.445 327.661 42.673 299.898C-68.1493 266.003 -214.336 377.625 -311.37 326.824C-389.872 285.725 -303.24 192.318 -294.132 123.568C-285.903 61.4544 -300.937 -3.46568 -260.276 -58.8371C-218.906 -115.175 -148.266 -160.17 -66.5013 -186.418C11.9858 -211.615 101.137 -194.937 186.703 -202.331Z" fill="#972E7C"/>
<path fill-rule="evenodd" clip-rule="evenodd" d="M1212.34 253.41C1158.42 274.084 1110.88 298.138 1057.59 319.603C960.424 358.737 876.283 453.76 768.743 432.076C671.463 412.461 689.409 304.464 652.432 237.91C622.374 183.808 585.095 133.708 571.146 76.4265C555.599 12.5815 531.058 -54.8703 566.594 -114.587C602.894 -175.586 683.726 -217.644 765.398 -250C844.746 -281.435 934.745 -300.888 1025.48 -296.382C1112.11 -292.081 1193.15 -263.665 1261.04 -225.387C1322.5 -190.729 1363.76 -141.927 1391.58 -89.9457C1416.22 -43.908 1411.43 5.34216 1410.86 54.5618C1410.31 101.748 1426.77 154.24 1388.27 192.796C1350.01 231.126 1270.68 231.038 1212.34 253.41Z" fill="#31295D"/>
</g>
<path d="M1019.98 333.867C1019.98 338.034 1019.82 340.931 1019.5 342.559C1019.17 344.186 1018.39 345 1017.15 345H988.832C986.879 345 985.674 344.219 985.219 342.656C984.698 341.029 984.438 338.132 984.438 333.965V323.613C984.438 319.382 984.698 316.484 985.219 314.922C985.674 313.294 986.879 312.48 988.832 312.48H1017.15C1018.39 312.48 1019.17 313.327 1019.5 315.02C1019.82 316.647 1019.98 319.577 1019.98 323.809V333.867ZM1047.33 333.867C1047.33 338.034 1047.17 340.931 1046.84 342.559C1046.51 344.186 1045.73 345 1044.5 345H1016.18C1014.22 345 1013.02 344.219 1012.56 342.656C1012.04 341.029 1011.78 338.132 1011.78 333.965V323.613C1011.78 319.382 1012.04 316.484 1012.56 314.922C1013.02 313.294 1014.22 312.48 1016.18 312.48H1044.5C1045.73 312.48 1046.51 313.327 1046.84 315.02C1047.17 316.647 1047.33 319.577 1047.33 323.809V333.867ZM1074.67 333.867C1074.67 338.034 1074.51 340.931 1074.18 342.559C1073.86 344.186 1073.08 345 1071.84 345H1043.52C1041.57 345 1040.36 344.219 1039.91 342.656C1039.39 341.029 1039.12 338.132 1039.12 333.965V323.613C1039.12 319.382 1039.39 316.484 1039.91 314.922C1040.36 313.294 1041.57 312.48 1043.52 312.48H1071.84C1073.08 312.48 1073.86 313.327 1074.18 315.02C1074.51 316.647 1074.67 319.577 1074.67 323.809V333.867ZM1102.02 333.867C1102.02 338.034 1101.85 340.931 1101.53 342.559C1101.2 344.186 1100.42 345 1099.18 345H1070.86C1068.91 345 1067.71 344.219 1067.25 342.656C1066.73 341.029 1066.47 338.132 1066.47 333.965V323.613C1066.47 319.382 1066.73 316.484 1067.25 314.922C1067.71 313.294 1068.91 312.48 1070.86 312.48H1099.18C1100.42 312.48 1101.2 313.327 1101.53 315.02C1101.85 316.647 1102.02 319.577 1102.02 323.809V333.867ZM1129.36 333.867C1129.36 338.034 1129.2 340.931 1128.87 342.559C1128.55 344.186 1127.76 345 1126.53 345H1098.21C1096.25 345 1095.05 344.219 1094.59 342.656C1094.07 341.029 1093.81 338.132 1093.81 333.965V323.613C1093.81 319.382 1094.07 316.484 1094.59 314.922C1095.05 313.294 1096.25 312.48 1098.21 312.48H1126.53C1127.76 312.48 1128.55 313.327 1128.87 315.02C1129.2 316.647 1129.36 319.577 1129.36 323.809V333.867ZM1156.7 333.867C1156.7 338.034 1156.54 340.931 1156.21 342.559C1155.89 344.186 1155.11 345 1153.87 345H1125.55C1123.6 345 1122.39 344.219 1121.94 342.656C1121.42 341.029 1121.16 338.132 1121.16 333.965V323.613C1121.16 319.382 1121.42 316.484 1121.94 314.922C1122.39 313.294 1123.6 312.48 1125.55 312.48H1153.87C1155.11 312.48 1155.89 313.327 1156.21 315.02C1156.54 316.647 1156.7 319.577 1156.7 323.809V333.867ZM1185.61 397.789V387.633V387.34L1185.9 387.145L1230.34 368.98L1231.02 368.785V369.469V379.527V379.82L1230.73 380.016L1186.29 398.277L1185.61 398.473V397.789ZM1152.89 312.48H1159.93C1174.38 312.48 1184.8 312.253 1191.18 311.797C1197.56 311.341 1202.21 310.202 1205.14 308.379C1198.5 298.483 1188.28 292.689 1174.48 290.996L1174.38 276.25C1187.07 271.693 1199.8 269.414 1212.56 269.414C1221.94 269.414 1229.2 270.716 1234.34 273.32C1239.55 275.924 1242.15 279.798 1242.15 284.941C1242.15 291.842 1237.69 299.622 1228.77 308.281C1231.83 310.104 1235.25 311.276 1239.03 311.797C1242.87 312.253 1248.3 312.48 1255.34 312.48H1257.29C1258.46 312.48 1259.24 313.783 1259.63 316.387C1260.02 318.991 1260.22 323.288 1260.22 329.277V329.961C1260.22 335.365 1260.02 339.238 1259.63 341.582C1259.24 343.861 1258.46 345 1257.29 345H1251.04C1242.84 345 1235.93 343.828 1230.34 341.484C1224.74 339.076 1219.46 335.137 1214.52 329.668C1208.4 334.876 1201.04 338.75 1192.45 341.289C1183.85 343.763 1174.77 345 1165.2 345H1152.89C1150.94 345 1149.74 344.219 1149.28 342.656C1148.76 341.029 1148.5 338.132 1148.5 333.965V323.613C1148.5 319.382 1148.76 316.484 1149.28 314.922C1149.74 313.294 1150.94 312.48 1152.89 312.48ZM1288.83 248.262V238.105V237.812L1289.12 237.617L1333.66 219.453L1334.34 219.258V219.941V230.098V230.391L1334.05 230.586L1289.52 248.75L1288.83 248.945V248.262ZM1256.41 312.48H1260.02C1267.05 312.48 1272.65 311.797 1276.82 310.43C1281.05 308.997 1284.24 306.426 1286.39 302.715C1286.85 301.999 1287.66 300.632 1288.83 298.613C1290.07 296.53 1290.98 294.967 1291.57 293.926C1292.15 292.884 1293.06 291.387 1294.3 289.434C1295.6 287.415 1296.64 285.853 1297.43 284.746C1298.27 283.639 1299.35 282.24 1300.65 280.547C1302.02 278.854 1303.22 277.52 1304.26 276.543C1305.37 275.566 1306.64 274.492 1308.07 273.32C1309.5 272.083 1310.87 271.172 1312.17 270.586C1313.47 269.935 1314.91 269.414 1316.47 269.023C1318.03 268.568 1319.59 268.34 1321.16 268.34C1326.49 268.34 1331.35 270.358 1335.71 274.395C1340.13 278.431 1343.52 283.639 1345.86 290.02C1348.27 296.335 1349.48 303.008 1349.48 310.039C1349.48 320.13 1347.17 328.464 1342.54 335.039C1337.92 341.549 1331.57 344.805 1323.5 344.805C1315.56 344.805 1304.42 340.182 1290.1 330.938C1286.72 335.951 1282.52 339.564 1277.5 341.777C1272.56 343.926 1266.47 345 1259.24 345H1256.41C1254.46 345 1253.25 344.219 1252.8 342.656C1252.28 341.029 1252.02 338.132 1252.02 333.965V323.613C1252.02 319.382 1252.28 316.484 1252.8 314.922C1253.25 313.294 1254.46 312.48 1256.41 312.48ZM1328.09 315.117C1330.04 315.117 1331.74 314.661 1333.17 313.75C1334.6 312.773 1335.32 311.439 1335.32 309.746C1335.32 305.84 1333.04 301.966 1328.48 298.125C1323.99 294.284 1320.31 292.363 1317.45 292.363C1314.19 292.363 1311.36 293.438 1308.95 295.586C1306.54 297.734 1304.13 300.599 1301.72 304.18C1313.51 311.471 1322.3 315.117 1328.09 315.117Z" fill="white"/>
<g filter="url(#filter1_d_155_69)">
<path d="M247.973 261.797L264.184 278.008L247.973 294.219L231.762 278.008L247.973 261.797ZM303.051 300.664C304.874 304.049 306.632 306.556 308.324 308.184C310.017 309.746 312.198 310.853 314.867 311.504C317.536 312.155 321.312 312.48 326.195 312.48H330.297C331.534 312.48 332.315 313.327 332.641 315.02C332.966 316.647 333.129 319.577 333.129 323.809V333.867C333.129 338.034 332.966 340.931 332.641 342.559C332.315 344.186 331.534 345 330.297 345H327.172C323.656 345 320.759 344.707 318.48 344.121C316.267 343.535 313.923 342.526 311.449 341.094C311.319 351.315 309.724 360.397 306.664 368.34C303.604 376.348 299.307 382.891 293.773 387.969C288.24 393.112 281.697 396.986 274.145 399.59C266.592 402.259 258.161 403.594 248.852 403.594C212.523 403.594 194.359 389.596 194.359 361.602C194.359 349.557 197.842 335.527 204.809 319.512L213.598 323.223C210.017 332.142 208.227 340.02 208.227 346.855C208.227 355.905 211.807 362.546 218.969 366.777C226.195 371.074 235.863 373.223 247.973 373.223C259.301 373.223 269.457 371.66 278.441 368.535C287.426 365.41 294.294 360.918 299.047 355.059C293.122 338.522 286.677 324.622 279.711 313.359L291.723 293.242C292.504 292.005 293.057 291.126 293.383 290.605C293.773 290.085 294.229 289.661 294.75 289.336C295.271 288.945 295.759 288.945 296.215 289.336C296.671 289.661 297.191 290.312 297.777 291.289C298.689 292.721 300.447 295.846 303.051 300.664ZM352.758 379.18L337.23 394.707L321.801 379.18L337.23 363.652L352.758 379.18ZM354.32 379.18L369.75 363.652L385.277 379.18L369.75 394.707L354.32 379.18ZM329.418 312.48H344.066C363.402 312.48 373.201 306.686 373.461 295.098L373.754 284.941H385.18L385.766 294.707C385.896 297.116 386.026 298.939 386.156 300.176C386.286 301.413 386.579 302.845 387.035 304.473C387.491 306.1 388.109 307.305 388.891 308.086C389.737 308.867 390.876 309.648 392.309 310.43C393.741 311.211 395.531 311.764 397.68 312.09C399.893 312.35 402.53 312.48 405.59 312.48H407.836C409.073 312.48 409.854 313.327 410.18 315.02C410.57 316.712 410.766 319.642 410.766 323.809V333.867C410.766 337.969 410.57 340.866 410.18 342.559C409.854 344.186 409.073 345 407.836 345H405.688C399.698 345 394.652 343.73 390.551 341.191C386.514 338.652 382.999 334.909 380.004 329.961C376.553 334.714 371.638 338.424 365.258 341.094C358.878 343.698 351.586 345 343.383 345H329.418C327.465 345 326.26 344.219 325.805 342.656C325.284 341.029 325.023 338.132 325.023 333.965V323.613C325.023 319.382 325.284 316.484 325.805 314.922C326.26 313.294 327.465 312.48 329.418 312.48ZM438.012 333.867C438.012 338.034 437.849 340.931 437.523 342.559C437.198 344.186 436.417 345 435.18 345H406.859C404.906 345 403.702 344.219 403.246 342.656C402.725 341.029 402.465 338.132 402.465 333.965V323.613C402.465 319.382 402.725 316.484 403.246 314.922C403.702 313.294 404.906 312.48 406.859 312.48H435.18C436.417 312.48 437.198 313.327 437.523 315.02C437.849 316.647 438.012 319.577 438.012 323.809V333.867ZM465.355 333.867C465.355 338.034 465.193 340.931 464.867 342.559C464.542 344.186 463.76 345 462.523 345H434.203C432.25 345 431.046 344.219 430.59 342.656C430.069 341.029 429.809 338.132 429.809 333.965V323.613C429.809 319.382 430.069 316.484 430.59 314.922C431.046 313.294 432.25 312.48 434.203 312.48H462.523C463.76 312.48 464.542 313.327 464.867 315.02C465.193 316.647 465.355 319.577 465.355 323.809V333.867ZM492.699 333.867C492.699 338.034 492.536 340.931 492.211 342.559C491.885 344.186 491.104 345 489.867 345H461.547C459.594 345 458.389 344.219 457.934 342.656C457.413 341.029 457.152 338.132 457.152 333.965V323.613C457.152 319.382 457.413 316.484 457.934 314.922C458.389 313.294 459.594 312.48 461.547 312.48H489.867C491.104 312.48 491.885 313.327 492.211 315.02C492.536 316.647 492.699 319.577 492.699 323.809V333.867ZM520.043 333.867C520.043 338.034 519.88 340.931 519.555 342.559C519.229 344.186 518.448 345 517.211 345H488.891C486.938 345 485.733 344.219 485.277 342.656C484.757 341.029 484.496 338.132 484.496 333.965V323.613C484.496 319.382 484.757 316.484 485.277 314.922C485.733 313.294 486.938 312.48 488.891 312.48H517.211C518.448 312.48 519.229 313.327 519.555 315.02C519.88 316.647 520.043 319.577 520.043 323.809V333.867Z" fill="white"/>
</g>
<path d="M1019.88 613.867C1019.88 618.034 1019.72 620.931 1019.39 622.559C1019.07 624.186 1018.29 625 1017.05 625H988.73C986.777 625 985.573 624.219 985.117 622.656C984.596 621.029 984.336 618.132 984.336 613.965V603.613C984.336 599.382 984.596 596.484 985.117 594.922C985.573 593.294 986.777 592.48 988.73 592.48H1017.05C1018.29 592.48 1019.07 593.327 1019.39 595.02C1019.72 596.647 1019.88 599.577 1019.88 603.809V613.867ZM1047.23 613.867C1047.23 618.034 1047.06 620.931 1046.74 622.559C1046.41 624.186 1045.63 625 1044.39 625H1016.07C1014.12 625 1012.92 624.219 1012.46 622.656C1011.94 621.029 1011.68 618.132 1011.68 613.965V603.613C1011.68 599.382 1011.94 596.484 1012.46 594.922C1012.92 593.294 1014.12 592.48 1016.07 592.48H1044.39C1045.63 592.48 1046.41 593.327 1046.74 595.02C1047.06 596.647 1047.23 599.577 1047.23 603.809V613.867ZM1074.57 613.867C1074.57 618.034 1074.41 620.931 1074.08 622.559C1073.76 624.186 1072.98 625 1071.74 625H1043.42C1041.46 625 1040.26 624.219 1039.8 622.656C1039.28 621.029 1039.02 618.132 1039.02 613.965V603.613C1039.02 599.382 1039.28 596.484 1039.8 594.922C1040.26 593.294 1041.46 592.48 1043.42 592.48H1071.74C1072.98 592.48 1073.76 593.327 1074.08 595.02C1074.41 596.647 1074.57 599.577 1074.57 603.809V613.867ZM1101.91 613.867C1101.91 618.034 1101.75 620.931 1101.43 622.559C1101.1 624.186 1100.32 625 1099.08 625H1070.76C1068.81 625 1067.6 624.219 1067.15 622.656C1066.63 621.029 1066.37 618.132 1066.37 613.965V603.613C1066.37 599.382 1066.63 596.484 1067.15 594.922C1067.6 593.294 1068.81 592.48 1070.76 592.48H1099.08C1100.32 592.48 1101.1 593.327 1101.43 595.02C1101.75 596.647 1101.91 599.577 1101.91 603.809V613.867ZM1129.26 613.867C1129.26 618.034 1129.1 620.931 1128.77 622.559C1128.44 624.186 1127.66 625 1126.43 625H1098.11C1096.15 625 1094.95 624.219 1094.49 622.656C1093.97 621.029 1093.71 618.132 1093.71 613.965V603.613C1093.71 599.382 1093.97 596.484 1094.49 594.922C1094.95 593.294 1096.15 592.48 1098.11 592.48H1126.43C1127.66 592.48 1128.44 593.327 1128.77 595.02C1129.1 596.647 1129.26 599.577 1129.26 603.809V613.867ZM1156.6 613.867C1156.6 618.034 1156.44 620.931 1156.11 622.559C1155.79 624.186 1155.01 625 1153.77 625H1125.45C1123.5 625 1122.29 624.219 1121.84 622.656C1121.32 621.029 1121.05 618.132 1121.05 613.965V603.613C1121.05 599.382 1121.32 596.484 1121.84 594.922C1122.29 593.294 1123.5 592.48 1125.45 592.48H1153.77C1155.01 592.48 1155.79 593.327 1156.11 595.02C1156.44 596.647 1156.6 599.577 1156.6 603.809V613.867ZM1183.95 613.867C1183.95 618.034 1183.78 620.931 1183.46 622.559C1183.13 624.186 1182.35 625 1181.11 625H1152.79C1150.84 625 1149.64 624.219 1149.18 622.656C1148.66 621.029 1148.4 618.132 1148.4 613.965V603.613C1148.4 599.382 1148.66 596.484 1149.18 594.922C1149.64 593.294 1150.84 592.48 1152.79 592.48H1181.11C1182.35 592.48 1183.13 593.327 1183.46 595.02C1183.78 596.647 1183.95 599.577 1183.95 603.809V613.867ZM1180.14 592.48H1207.09C1201.69 587.402 1198.98 581.055 1198.98 573.438C1198.98 566.602 1200.68 559.863 1204.06 553.223C1207.45 546.517 1212.27 540.951 1218.52 536.523C1224.83 532.031 1231.67 529.785 1239.02 529.785C1253.09 529.785 1264.09 537.858 1272.03 554.004L1266.76 560.254C1258.88 556.543 1251.2 554.688 1243.71 554.688C1239.93 554.688 1235.74 555.404 1231.11 556.836C1226.56 558.268 1222.49 560.384 1218.91 563.184C1215.39 565.918 1213.63 568.88 1213.63 572.07C1213.63 572.982 1215.78 575.163 1220.08 578.613C1224.44 582.064 1228.18 584.766 1231.31 586.719C1232.68 587.565 1234.08 587.891 1235.51 587.695C1240 587.044 1249.15 585.254 1262.95 582.324L1277.11 579.297C1279.52 578.841 1281.15 579.069 1281.99 579.98C1282.84 580.892 1282.77 582.357 1281.8 584.375L1269.98 608.594C1254.29 614.323 1239.97 618.49 1227.01 621.094C1214.06 623.698 1200.77 625 1187.17 625H1180.14C1178.18 625 1176.98 624.219 1176.52 622.656C1176 621.029 1175.74 618.132 1175.74 613.965V603.613C1175.74 599.382 1176 596.484 1176.52 594.922C1176.98 593.294 1178.18 592.48 1180.14 592.48Z" fill="white"/>
<path d="M214.945 589.648C228.812 589.779 242.582 591.243 256.254 594.043C253.389 587.988 249.776 583.04 245.414 579.199C241.117 575.358 236.169 573.438 230.57 573.438C228.096 573.438 225.655 574.544 223.246 576.758C220.902 578.971 219.112 581.185 217.875 583.398C216.638 585.547 215.661 587.63 214.945 589.648ZM258.109 621.094C256.026 622.852 253.389 623.73 250.199 623.73C248.572 623.73 246.977 623.6 245.414 623.34C229.073 621.061 218.266 619.922 212.992 619.922C207.784 619.922 203.52 620.443 200.199 621.484L202.934 661.816C203.259 666.829 202.543 671.777 200.785 676.66C199.027 681.608 196.195 687.077 192.289 693.066C189.49 697.298 187.602 699.414 186.625 699.414C185.779 699.414 185.29 696.517 185.16 690.723L184.184 639.453V636.719C184.184 612.63 190.564 597.07 203.324 590.039C208.402 562.174 218.07 548.242 232.328 548.242C238.448 548.242 244.405 550.618 250.199 555.371C256.059 560.124 260.746 566.243 264.262 573.73C267.842 581.152 269.633 588.672 269.633 596.289C269.633 606.576 265.792 614.844 258.109 621.094ZM393.949 441.059C393.949 436.827 393.721 433.344 393.266 430.609V430.512L393.363 430.316C393.819 429.34 394.34 428.656 394.926 428.266C395.772 427.68 396.586 427.582 397.367 427.973C398.214 428.298 399.027 429.047 399.809 430.219L399.906 430.316V430.414C400.622 435.492 400.98 439.431 400.98 442.23C400.98 448.676 399.809 453.526 397.465 456.781C395.186 459.971 391.768 461.566 387.211 461.566C381.742 461.566 377.901 459.776 375.688 456.195C374.581 460.297 372.725 463.389 370.121 465.473C367.517 467.556 364.229 468.598 360.258 468.598C355.961 468.598 352.738 467.198 350.59 464.398C348.441 461.599 347.335 457.465 347.27 451.996C347.27 450.824 347.302 449.587 347.367 448.285C347.497 446.983 347.66 445.583 347.855 444.086C348.051 442.523 348.279 440.896 348.539 439.203V439.105L348.637 439.008C349.418 437.706 350.199 436.892 350.98 436.566C352.543 435.785 353.91 436.632 355.082 439.105L355.18 439.301V439.398C354.529 444.021 354.203 447.048 354.203 448.48C354.203 454.535 356.514 457.562 361.137 457.562C364.066 457.562 366.312 456.553 367.875 454.535C369.438 452.517 370.284 449.424 370.414 445.258C370.544 442.458 370.577 438.65 370.512 433.832V433.637L370.609 433.539C371.391 432.562 372.107 431.879 372.758 431.488C373.344 431.163 373.897 431.065 374.418 431.195C374.939 431.26 375.395 431.521 375.785 431.977C376.241 432.367 376.664 432.921 377.055 433.637L377.152 433.734V433.832C377.152 435.004 377.152 436.046 377.152 436.957C377.217 437.803 377.25 438.454 377.25 438.91C377.25 439.301 377.25 439.529 377.25 439.594V439.691C377.25 441.97 377.576 443.891 378.227 445.453C378.943 446.951 379.984 448.09 381.352 448.871C382.719 449.587 384.477 449.978 386.625 450.043C391.508 450.043 393.949 447.048 393.949 441.059ZM385.648 478.125L388.871 572.656C389.066 579.232 390.271 584.18 392.484 587.5C394.763 590.82 398.669 592.48 404.203 592.48H408.012C409.184 592.48 409.965 593.783 410.355 596.387C410.746 598.991 410.941 603.288 410.941 609.277V609.961C410.941 615.365 410.746 619.238 410.355 621.582C409.965 623.861 409.184 625 408.012 625H404.203C386.169 625 376.339 612.272 374.711 586.816C357.589 612.207 339.262 624.902 319.73 624.902C317.061 624.902 313.773 623.926 309.867 621.973L286.43 610.254C285.062 609.603 284.118 608.757 283.598 607.715C283.142 606.673 283.37 605.697 284.281 604.785C285.193 603.809 286.853 603.158 289.262 602.832C311.202 600.098 327.999 595.182 339.652 588.086C329.822 558.854 313.35 530.404 290.238 502.734L303.031 476.66C316.052 494.564 326.664 512.37 334.867 530.078C343.135 547.786 349.223 564.225 353.129 579.395C358.077 575.553 362.113 571.615 365.238 567.578C368.363 563.542 369.926 560.319 369.926 557.91C369.926 543.652 367.322 521.81 362.113 492.383L377.934 475.684C378.845 474.772 379.496 474.121 379.887 473.73C380.277 473.275 380.766 472.754 381.352 472.168C382.003 471.582 382.458 471.257 382.719 471.191C382.979 471.061 383.305 470.964 383.695 470.898C384.086 470.768 384.346 470.898 384.477 471.289C384.672 471.615 384.867 472.07 385.062 472.656C385.258 473.177 385.388 473.893 385.453 474.805C385.518 475.716 385.583 476.823 385.648 478.125ZM438.285 613.867C438.285 618.034 438.122 620.931 437.797 622.559C437.471 624.186 436.69 625 435.453 625H407.133C405.18 625 403.975 624.219 403.52 622.656C402.999 621.029 402.738 618.132 402.738 613.965V603.613C402.738 599.382 402.999 596.484 403.52 594.922C403.975 593.294 405.18 592.48 407.133 592.48H435.453C436.69 592.48 437.471 593.327 437.797 595.02C438.122 596.647 438.285 599.577 438.285 603.809V613.867ZM465.629 613.867C465.629 618.034 465.466 620.931 465.141 622.559C464.815 624.186 464.034 625 462.797 625H434.477C432.523 625 431.319 624.219 430.863 622.656C430.342 621.029 430.082 618.132 430.082 613.965V603.613C430.082 599.382 430.342 596.484 430.863 594.922C431.319 593.294 432.523 592.48 434.477 592.48H462.797C464.034 592.48 464.815 593.327 465.141 595.02C465.466 596.647 465.629 599.577 465.629 603.809V613.867ZM492.973 613.867C492.973 618.034 492.81 620.931 492.484 622.559C492.159 624.186 491.378 625 490.141 625H461.82C459.867 625 458.663 624.219 458.207 622.656C457.686 621.029 457.426 618.132 457.426 613.965V603.613C457.426 599.382 457.686 596.484 458.207 594.922C458.663 593.294 459.867 592.48 461.82 592.48H490.141C491.378 592.48 492.159 593.327 492.484 595.02C492.81 596.647 492.973 599.577 492.973 603.809V613.867ZM520.316 613.867C520.316 618.034 520.154 620.931 519.828 622.559C519.503 624.186 518.721 625 517.484 625H489.164C487.211 625 486.007 624.219 485.551 622.656C485.03 621.029 484.77 618.132 484.77 613.965V603.613C484.77 599.382 485.03 596.484 485.551 594.922C486.007 593.294 487.211 592.48 489.164 592.48H517.484C518.721 592.48 519.503 593.327 519.828 595.02C520.154 596.647 520.316 599.577 520.316 603.809V613.867Z" fill="white"/>
<g filter="url(#filter2_f_155_69)">
<path d="M512.398 334.867C512.398 339.034 512.236 341.931 511.91 343.559C511.585 345.186 510.803 346 509.566 346H481.246C479.293 346 478.089 345.219 477.633 343.656C477.112 342.029 476.852 339.132 476.852 334.965V324.613C476.852 320.382 477.112 317.484 477.633 315.922C478.089 314.294 479.293 313.48 481.246 313.48H509.566C510.803 313.48 511.585 314.327 511.91 316.02C512.236 317.647 512.398 320.577 512.398 324.809V334.867ZM539.742 334.867C539.742 339.034 539.579 341.931 539.254 343.559C538.928 345.186 538.147 346 536.91 346H508.59C506.637 346 505.432 345.219 504.977 343.656C504.456 342.029 504.195 339.132 504.195 334.965V324.613C504.195 320.382 504.456 317.484 504.977 315.922C505.432 314.294 506.637 313.48 508.59 313.48H536.91C538.147 313.48 538.928 314.327 539.254 316.02C539.579 317.647 539.742 320.577 539.742 324.809V334.867ZM567.086 334.867C567.086 339.034 566.923 341.931 566.598 343.559C566.272 345.186 565.491 346 564.254 346H535.934C533.98 346 532.776 345.219 532.32 343.656C531.799 342.029 531.539 339.132 531.539 334.965V324.613C531.539 320.382 531.799 317.484 532.32 315.922C532.776 314.294 533.98 313.48 535.934 313.48H564.254C565.491 313.48 566.272 314.327 566.598 316.02C566.923 317.647 567.086 320.577 567.086 324.809V334.867ZM594.43 334.867C594.43 339.034 594.267 341.931 593.941 343.559C593.616 345.186 592.835 346 591.598 346H563.277C561.324 346 560.12 345.219 559.664 343.656C559.143 342.029 558.883 339.132 558.883 334.965V324.613C558.883 320.382 559.143 317.484 559.664 315.922C560.12 314.294 561.324 313.48 563.277 313.48H591.598C592.835 313.48 593.616 314.327 593.941 316.02C594.267 317.647 594.43 320.577 594.43 324.809V334.867ZM621.773 334.867C621.773 339.034 621.611 341.931 621.285 343.559C620.96 345.186 620.178 346 618.941 346H590.621C588.668 346 587.464 345.219 587.008 343.656C586.487 342.029 586.227 339.132 586.227 334.965V324.613C586.227 320.382 586.487 317.484 587.008 315.922C587.464 314.294 588.668 313.48 590.621 313.48H618.941C620.178 313.48 620.96 314.327 621.285 316.02C621.611 317.647 621.773 320.577 621.773 324.809V334.867ZM649.117 334.867C649.117 339.034 648.954 341.931 648.629 343.559C648.303 345.186 647.522 346 646.285 346H617.965C616.012 346 614.807 345.219 614.352 343.656C613.831 342.029 613.57 339.132 613.57 334.965V324.613C613.57 320.382 613.831 317.484 614.352 315.922C614.807 314.294 616.012 313.48 617.965 313.48H646.285C647.522 313.48 648.303 314.327 648.629 316.02C648.954 317.647 649.117 320.577 649.117 324.809V334.867ZM676.461 334.867C676.461 339.034 676.298 341.931 675.973 343.559C675.647 345.186 674.866 346 673.629 346H645.309C643.355 346 642.151 345.219 641.695 343.656C641.174 342.029 640.914 339.132 640.914 334.965V324.613C640.914 320.382 641.174 317.484 641.695 315.922C642.151 314.294 643.355 313.48 645.309 313.48H673.629C674.866 313.48 675.647 314.327 675.973 316.02C676.298 317.647 676.461 320.577 676.461 324.809V334.867ZM703.805 334.867C703.805 339.034 703.642 341.931 703.316 343.559C702.991 345.186 702.21 346 700.973 346H672.652C670.699 346 669.495 345.219 669.039 343.656C668.518 342.029 668.258 339.132 668.258 334.965V324.613C668.258 320.382 668.518 317.484 669.039 315.922C669.495 314.294 670.699 313.48 672.652 313.48H700.973C702.21 313.48 702.991 314.327 703.316 316.02C703.642 317.647 703.805 320.577 703.805 324.809V334.867ZM731.148 334.867C731.148 339.034 730.986 341.931 730.66 343.559C730.335 345.186 729.553 346 728.316 346H699.996C698.043 346 696.839 345.219 696.383 343.656C695.862 342.029 695.602 339.132 695.602 334.965V324.613C695.602 320.382 695.862 317.484 696.383 315.922C696.839 314.294 698.043 313.48 699.996 313.48H728.316C729.553 313.48 730.335 314.327 730.66 316.02C730.986 317.647 731.148 320.577 731.148 324.809V334.867ZM758.492 334.867C758.492 339.034 758.329 341.931 758.004 343.559C757.678 345.186 756.897 346 755.66 346H727.34C725.387 346 724.182 345.219 723.727 343.656C723.206 342.029 722.945 339.132 722.945 334.965V324.613C722.945 320.382 723.206 317.484 723.727 315.922C724.182 314.294 725.387 313.48 727.34 313.48H755.66C756.897 313.48 757.678 314.327 758.004 316.02C758.329 317.647 758.492 320.577 758.492 324.809V334.867ZM785.836 334.867C785.836 339.034 785.673 341.931 785.348 343.559C785.022 345.186 784.241 346 783.004 346H754.684C752.73 346 751.526 345.219 751.07 343.656C750.549 342.029 750.289 339.132 750.289 334.965V324.613C750.289 320.382 750.549 317.484 751.07 315.922C751.526 314.294 752.73 313.48 754.684 313.48H783.004C784.241 313.48 785.022 314.327 785.348 316.02C785.673 317.647 785.836 320.577 785.836 324.809V334.867ZM813.18 334.867C813.18 339.034 813.017 341.931 812.691 343.559C812.366 345.186 811.585 346 810.348 346H782.027C780.074 346 778.87 345.219 778.414 343.656C777.893 342.029 777.633 339.132 777.633 334.965V324.613C777.633 320.382 777.893 317.484 778.414 315.922C778.87 314.294 780.074 313.48 782.027 313.48H810.348C811.585 313.48 812.366 314.327 812.691 316.02C813.017 317.647 813.18 320.577 813.18 324.809V334.867ZM840.523 334.867C840.523 339.034 840.361 341.931 840.035 343.559C839.71 345.186 838.928 346 837.691 346H809.371C807.418 346 806.214 345.219 805.758 343.656C805.237 342.029 804.977 339.132 804.977 334.965V324.613C804.977 320.382 805.237 317.484 805.758 315.922C806.214 314.294 807.418 313.48 809.371 313.48H837.691C838.928 313.48 839.71 314.327 840.035 316.02C840.361 317.647 840.523 320.577 840.523 324.809V334.867ZM867.867 334.867C867.867 339.034 867.704 341.931 867.379 343.559C867.053 345.186 866.272 346 865.035 346H836.715C834.762 346 833.557 345.219 833.102 343.656C832.581 342.029 832.32 339.132 832.32 334.965V324.613C832.32 320.382 832.581 317.484 833.102 315.922C833.557 314.294 834.762 313.48 836.715 313.48H865.035C866.272 313.48 867.053 314.327 867.379 316.02C867.704 317.647 867.867 320.577 867.867 324.809V334.867ZM895.211 334.867C895.211 339.034 895.048 341.931 894.723 343.559C894.397 345.186 893.616 346 892.379 346H864.059C862.105 346 860.901 345.219 860.445 343.656C859.924 342.029 859.664 339.132 859.664 334.965V324.613C859.664 320.382 859.924 317.484 860.445 315.922C860.901 314.294 862.105 313.48 864.059 313.48H892.379C893.616 313.48 894.397 314.327 894.723 316.02C895.048 317.647 895.211 320.577 895.211 324.809V334.867ZM922.555 334.867C922.555 339.034 922.392 341.931 922.066 343.559C921.741 345.186 920.96 346 919.723 346H891.402C889.449 346 888.245 345.219 887.789 343.656C887.268 342.029 887.008 339.132 887.008 334.965V324.613C887.008 320.382 887.268 317.484 887.789 315.922C888.245 314.294 889.449 313.48 891.402 313.48H919.723C920.96 313.48 921.741 314.327 922.066 316.02C922.392 317.647 922.555 320.577 922.555 324.809V334.867ZM949.898 334.867C949.898 339.034 949.736 341.931 949.41 343.559C949.085 345.186 948.303 346 947.066 346H918.746C916.793 346 915.589 345.219 915.133 343.656C914.612 342.029 914.352 339.132 914.352 334.965V324.613C914.352 320.382 914.612 317.484 915.133 315.922C915.589 314.294 916.793 313.48 918.746 313.48H947.066C948.303 313.48 949.085 314.327 949.41 316.02C949.736 317.647 949.898 320.577 949.898 324.809V334.867ZM977.242 334.867C977.242 339.034 977.079 341.931 976.754 343.559C976.428 345.186 975.647 346 974.41 346H946.09C944.137 346 942.932 345.219 942.477 343.656C941.956 342.029 941.695 339.132 941.695 334.965V324.613C941.695 320.382 941.956 317.484 942.477 315.922C942.932 314.294 944.137 313.48 946.09 313.48H974.41C975.647 313.48 976.428 314.327 976.754 316.02C977.079 317.647 977.242 320.577 977.242 324.809V334.867ZM1004.59 334.867C1004.59 339.034 1004.42 341.931 1004.1 343.559C1003.77 345.186 1002.99 346 1001.75 346H973.434C971.48 346 970.276 345.219 969.82 343.656C969.299 342.029 969.039 339.132 969.039 334.965V324.613C969.039 320.382 969.299 317.484 969.82 315.922C970.276 314.294 971.48 313.48 973.434 313.48H1001.75C1002.99 313.48 1003.77 314.327 1004.1 316.02C1004.42 317.647 1004.59 320.577 1004.59 324.809V334.867Z" fill="white"/>
</g>
<g filter="url(#filter3_f_155_69)">
<path d="M547.742 613.867C547.742 618.034 547.579 620.931 547.254 622.559C546.928 624.186 546.147 625 544.91 625H516.59C514.637 625 513.432 624.219 512.977 622.656C512.456 621.029 512.195 618.132 512.195 613.965V603.613C512.195 599.382 512.456 596.484 512.977 594.922C513.432 593.294 514.637 592.48 516.59 592.48H544.91C546.147 592.48 546.928 593.327 547.254 595.02C547.579 596.647 547.742 599.577 547.742 603.809V613.867ZM575.086 613.867C575.086 618.034 574.923 620.931 574.598 622.559C574.272 624.186 573.491 625 572.254 625H543.934C541.98 625 540.776 624.219 540.32 622.656C539.799 621.029 539.539 618.132 539.539 613.965V603.613C539.539 599.382 539.799 596.484 540.32 594.922C540.776 593.294 541.98 592.48 543.934 592.48H572.254C573.491 592.48 574.272 593.327 574.598 595.02C574.923 596.647 575.086 599.577 575.086 603.809V613.867ZM602.43 613.867C602.43 618.034 602.267 620.931 601.941 622.559C601.616 624.186 600.835 625 599.598 625H571.277C569.324 625 568.12 624.219 567.664 622.656C567.143 621.029 566.883 618.132 566.883 613.965V603.613C566.883 599.382 567.143 596.484 567.664 594.922C568.12 593.294 569.324 592.48 571.277 592.48H599.598C600.835 592.48 601.616 593.327 601.941 595.02C602.267 596.647 602.43 599.577 602.43 603.809V613.867ZM629.773 613.867C629.773 618.034 629.611 620.931 629.285 622.559C628.96 624.186 628.178 625 626.941 625H598.621C596.668 625 595.464 624.219 595.008 622.656C594.487 621.029 594.227 618.132 594.227 613.965V603.613C594.227 599.382 594.487 596.484 595.008 594.922C595.464 593.294 596.668 592.48 598.621 592.48H626.941C628.178 592.48 628.96 593.327 629.285 595.02C629.611 596.647 629.773 599.577 629.773 603.809V613.867ZM657.117 613.867C657.117 618.034 656.954 620.931 656.629 622.559C656.303 624.186 655.522 625 654.285 625H625.965C624.012 625 622.807 624.219 622.352 622.656C621.831 621.029 621.57 618.132 621.57 613.965V603.613C621.57 599.382 621.831 596.484 622.352 594.922C622.807 593.294 624.012 592.48 625.965 592.48H654.285C655.522 592.48 656.303 593.327 656.629 595.02C656.954 596.647 657.117 599.577 657.117 603.809V613.867ZM684.461 613.867C684.461 618.034 684.298 620.931 683.973 622.559C683.647 624.186 682.866 625 681.629 625H653.309C651.355 625 650.151 624.219 649.695 622.656C649.174 621.029 648.914 618.132 648.914 613.965V603.613C648.914 599.382 649.174 596.484 649.695 594.922C650.151 593.294 651.355 592.48 653.309 592.48H681.629C682.866 592.48 683.647 593.327 683.973 595.02C684.298 596.647 684.461 599.577 684.461 603.809V613.867ZM711.805 613.867C711.805 618.034 711.642 620.931 711.316 622.559C710.991 624.186 710.21 625 708.973 625H680.652C678.699 625 677.495 624.219 677.039 622.656C676.518 621.029 676.258 618.132 676.258 613.965V603.613C676.258 599.382 676.518 596.484 677.039 594.922C677.495 593.294 678.699 592.48 680.652 592.48H708.973C710.21 592.48 710.991 593.327 711.316 595.02C711.642 596.647 711.805 599.577 711.805 603.809V613.867ZM739.148 613.867C739.148 618.034 738.986 620.931 738.66 622.559C738.335 624.186 737.553 625 736.316 625H707.996C706.043 625 704.839 624.219 704.383 622.656C703.862 621.029 703.602 618.132 703.602 613.965V603.613C703.602 599.382 703.862 596.484 704.383 594.922C704.839 593.294 706.043 592.48 707.996 592.48H736.316C737.553 592.48 738.335 593.327 738.66 595.02C738.986 596.647 739.148 599.577 739.148 603.809V613.867ZM766.492 613.867C766.492 618.034 766.329 620.931 766.004 622.559C765.678 624.186 764.897 625 763.66 625H735.34C733.387 625 732.182 624.219 731.727 622.656C731.206 621.029 730.945 618.132 730.945 613.965V603.613C730.945 599.382 731.206 596.484 731.727 594.922C732.182 593.294 733.387 592.48 735.34 592.48H763.66C764.897 592.48 765.678 593.327 766.004 595.02C766.329 596.647 766.492 599.577 766.492 603.809V613.867ZM793.836 613.867C793.836 618.034 793.673 620.931 793.348 622.559C793.022 624.186 792.241 625 791.004 625H762.684C760.73 625 759.526 624.219 759.07 622.656C758.549 621.029 758.289 618.132 758.289 613.965V603.613C758.289 599.382 758.549 596.484 759.07 594.922C759.526 593.294 760.73 592.48 762.684 592.48H791.004C792.241 592.48 793.022 593.327 793.348 595.02C793.673 596.647 793.836 599.577 793.836 603.809V613.867ZM821.18 613.867C821.18 618.034 821.017 620.931 820.691 622.559C820.366 624.186 819.585 625 818.348 625H790.027C788.074 625 786.87 624.219 786.414 622.656C785.893 621.029 785.633 618.132 785.633 613.965V603.613C785.633 599.382 785.893 596.484 786.414 594.922C786.87 593.294 788.074 592.48 790.027 592.48H818.348C819.585 592.48 820.366 593.327 820.691 595.02C821.017 596.647 821.18 599.577 821.18 603.809V613.867ZM848.523 613.867C848.523 618.034 848.361 620.931 848.035 622.559C847.71 624.186 846.928 625 845.691 625H817.371C815.418 625 814.214 624.219 813.758 622.656C813.237 621.029 812.977 618.132 812.977 613.965V603.613C812.977 599.382 813.237 596.484 813.758 594.922C814.214 593.294 815.418 592.48 817.371 592.48H845.691C846.928 592.48 847.71 593.327 848.035 595.02C848.361 596.647 848.523 599.577 848.523 603.809V613.867ZM875.867 613.867C875.867 618.034 875.704 620.931 875.379 622.559C875.053 624.186 874.272 625 873.035 625H844.715C842.762 625 841.557 624.219 841.102 622.656C840.581 621.029 840.32 618.132 840.32 613.965V603.613C840.32 599.382 840.581 596.484 841.102 594.922C841.557 593.294 842.762 592.48 844.715 592.48H873.035C874.272 592.48 875.053 593.327 875.379 595.02C875.704 596.647 875.867 599.577 875.867 603.809V613.867ZM903.211 613.867C903.211 618.034 903.048 620.931 902.723 622.559C902.397 624.186 901.616 625 900.379 625H872.059C870.105 625 868.901 624.219 868.445 622.656C867.924 621.029 867.664 618.132 867.664 613.965V603.613C867.664 599.382 867.924 596.484 868.445 594.922C868.901 593.294 870.105 592.48 872.059 592.48H900.379C901.616 592.48 902.397 593.327 902.723 595.02C903.048 596.647 903.211 599.577 903.211 603.809V613.867ZM930.555 613.867C930.555 618.034 930.392 620.931 930.066 622.559C929.741 624.186 928.96 625 927.723 625H899.402C897.449 625 896.245 624.219 895.789 622.656C895.268 621.029 895.008 618.132 895.008 613.965V603.613C895.008 599.382 895.268 596.484 895.789 594.922C896.245 593.294 897.449 592.48 899.402 592.48H927.723C928.96 592.48 929.741 593.327 930.066 595.02C930.392 596.647 930.555 599.577 930.555 603.809V613.867ZM957.898 613.867C957.898 618.034 957.736 620.931 957.41 622.559C957.085 624.186 956.303 625 955.066 625H926.746C924.793 625 923.589 624.219 923.133 622.656C922.612 621.029 922.352 618.132 922.352 613.965V603.613C922.352 599.382 922.612 596.484 923.133 594.922C923.589 593.294 924.793 592.48 926.746 592.48H955.066C956.303 592.48 957.085 593.327 957.41 595.02C957.736 596.647 957.898 599.577 957.898 603.809V613.867ZM985.242 613.867C985.242 618.034 985.079 620.931 984.754 622.559C984.428 624.186 983.647 625 982.41 625H954.09C952.137 625 950.932 624.219 950.477 622.656C949.956 621.029 949.695 618.132 949.695 613.965V603.613C949.695 599.382 949.956 596.484 950.477 594.922C950.932 593.294 952.137 592.48 954.09 592.48H982.41C983.647 592.48 984.428 593.327 984.754 595.02C985.079 596.647 985.242 599.577 985.242 603.809V613.867Z" fill="white"/>
</g>
<rect width="22.8595" height="45.2655" rx="11.4297" transform="matrix(0.821943 -0.569569 0.494032 0.869444 117.801 106.323)" fill="white"/>
<rect width="22.8804" height="45.2276" rx="11.4402" transform="matrix(0.82027 0.571976 -0.495851 0.868407 113.324 63.165)" fill="white"/>
<rect width="24.5101" height="42.049" rx="12.2551" transform="matrix(0.000512342 1 -1 -0.000173075 121.321 117.376)" fill="white"/>
</g>
<defs>
<filter id="filter0_f_155_69" x="-544" y="-497.028" width="2831" height="2277.03" filterUnits="userSpaceOnUse" color-interpolation-filters="sRGB">
<feFlood flood-opacity="0" result="BackgroundImageFix"/>
<feBlend mode="normal" in="SourceGraphic" in2="BackgroundImageFix" result="shape"/>
<feGaussianBlur stdDeviation="100" result="effect1_foregroundBlur_155_69"/>
</filter>
<filter id="filter1_d_155_69" x="190.359" y="261.797" width="333.684" height="149.797" filterUnits="userSpaceOnUse" color-interpolation-filters="sRGB">
<feFlood flood-opacity="0" result="BackgroundImageFix"/>
<feColorMatrix in="SourceAlpha" type="matrix" values="0 0 0 0 0 0 0 0 0 0 0 0 0 0 0 0 0 0 127 0" result="hardAlpha"/>
<feOffset dy="4"/>
<feGaussianBlur stdDeviation="2"/>
<feComposite in2="hardAlpha" operator="out"/>
<feColorMatrix type="matrix" values="0 0 0 0 0 0 0 0 0 0 0 0 0 0 0 0 0 0 0.25 0"/>
<feBlend mode="normal" in2="BackgroundImageFix" result="effect1_dropShadow_155_69"/>
<feBlend mode="normal" in="SourceGraphic" in2="effect1_dropShadow_155_69" result="shape"/>
</filter>
<filter id="filter2_f_155_69" x="426.852" y="263.48" width="627.734" height="132.52" filterUnits="userSpaceOnUse" color-interpolation-filters="sRGB">
<feFlood flood-opacity="0" result="BackgroundImageFix"/>
<feBlend mode="normal" in="SourceGraphic" in2="BackgroundImageFix" result="shape"/>
<feGaussianBlur stdDeviation="25" result="effect1_foregroundBlur_155_69"/>
</filter>
<filter id="filter3_f_155_69" x="462.195" y="542.48" width="573.047" height="132.52" filterUnits="userSpaceOnUse" color-interpolation-filters="sRGB">
<feFlood flood-opacity="0" result="BackgroundImageFix"/>
<feBlend mode="normal" in="SourceGraphic" in2="BackgroundImageFix" result="shape"/>
<feGaussianBlur stdDeviation="25" result="effect1_foregroundBlur_155_69"/>
</filter>
<clipPath id="clip0_155_69">
<rect width="1512" height="851" fill="white"/>
</clipPath>
</defs>
</svg>
