<svg width="126" height="83" viewBox="0 0 126 83" fill="none" xmlns="http://www.w3.org/2000/svg">
<rect width="8.60444" height="17.0382" rx="4.30222" transform="matrix(0.821943 -0.569569 0.494032 0.869444 109.605 42.3086)" fill="white"/>
<rect width="8.61232" height="17.0239" rx="4.30616" transform="matrix(0.82027 0.571976 -0.495851 0.868407 107.92 26.0625)" fill="white"/>
<rect width="9.22576" height="15.8275" rx="4.61288" transform="matrix(0.000512342 1 -1 -0.000173076 110.93 46.4688)" fill="white"/>
<path d="M36.8467 43.165C36.8467 42.5791 37.0444 42.0957 37.4399 41.7148C37.8501 41.3193 38.3555 41.1216 38.9561 41.1216C39.542 41.1216 40.0254 41.3193 40.4063 41.7148C40.8018 42.0957 40.9995 42.5791 40.9995 43.165C40.9995 43.7656 40.8018 44.2637 40.4063 44.6592C40.0254 45.0693 39.542 45.2744 38.9561 45.2744C38.3555 45.2744 37.8501 45.0693 37.4399 44.6592C37.0444 44.2637 36.8467 43.7656 36.8467 43.165ZM43.2407 41.9346C43.2407 41.3633 43.0356 40.8726 42.6255 40.4624C42.23 40.0522 41.7466 39.8472 41.1753 39.8472C43.9292 38.5435 46.002 36.4707 47.3936 33.6289V44C47.3936 45.7139 46.7856 47.1787 45.5698 48.3945C44.354 49.6103 42.8892 50.2183 41.1753 50.2183C39.4614 50.2183 37.9966 49.6103 36.7808 48.3945C35.5649 47.1787 34.957 45.7139 34.957 44L34.979 43.978L35.001 44C35.0889 45.0547 35.5283 45.9482 36.3193 46.6807C37.1104 47.4131 38.0479 47.7793 39.1318 47.7793C40.2012 47.7793 41.1313 47.4131 41.9224 46.6807C42.7134 45.9482 43.1528 45.0547 43.2407 44V41.9346ZM57.7646 44H46.8442V39.8472H53.6118V35.7163C53.6118 35.145 53.4067 34.6616 52.9966 34.2661C52.6011 33.856 52.1177 33.6509 51.5464 33.6509C54.3003 32.3472 56.373 30.2744 57.7646 27.4326V44ZM47.877 48.812C47.877 48.2114 48.0747 47.7134 48.4702 47.3179C48.8804 46.937 49.3784 46.7466 49.9644 46.7466C50.5649 46.7466 51.0557 46.937 51.4365 47.3179C51.832 47.7134 52.0298 48.2114 52.0298 48.812C52.0298 49.3979 51.832 49.8887 51.4365 50.2842C51.0557 50.6943 50.5649 50.8994 49.9644 50.8994C49.3784 50.8994 48.8804 50.6943 48.4702 50.2842C48.0747 49.8887 47.877 49.3979 47.877 48.812ZM53.1284 48.812C53.1284 48.2114 53.3262 47.7134 53.7217 47.3179C54.1318 46.937 54.6372 46.7466 55.2378 46.7466C55.8237 46.7466 56.3071 46.937 56.688 47.3179C57.0835 47.7134 57.2813 48.2114 57.2813 48.812C57.2813 49.3979 57.0835 49.8887 56.688 50.2842C56.3071 50.6943 55.8237 50.8994 55.2378 50.8994C54.6372 50.8994 54.1318 50.6943 53.7217 50.2842C53.3262 49.8887 53.1284 49.3979 53.1284 48.812ZM63.873 49.7578C63.2871 49.7578 62.9941 50.0581 62.9941 50.6587C62.8037 49.5015 62.2104 48.6152 61.2144 48H70.8384V49.7578H63.873ZM74.0464 44H57.2153V39.8472H62.2471C62.0273 39.2026 61.9175 38.5142 61.9175 37.7817C61.9175 36.3169 62.3643 35.0278 63.2578 33.9145C64.166 32.7866 65.3013 32.0615 66.6636 31.7393C68.9634 31.0947 70.1133 29.6592 70.1133 27.4326C70.5234 28.2236 70.7432 29.0366 70.7725 29.8716C70.8018 30.7065 70.6113 31.4463 70.2012 32.0908C70.7871 32.4131 71.2705 32.8672 71.6514 33.4531C72.0469 34.0244 72.2446 34.6982 72.2446 35.4746C72.2446 35.5478 72.23 35.5478 72.2007 35.4746C71.4683 34.2588 70.4282 33.6509 69.0806 33.6509C68.3042 33.6509 67.6011 33.9512 66.9712 34.5518C66.356 35.1377 66.0483 35.8701 66.0483 36.749C66.0483 37.5693 66.3193 38.2798 66.8613 38.8804C67.418 39.4663 68.0991 39.7886 68.9048 39.8472H74.0464V44ZM80.6821 22.2422H87.7134V24H78.0234C79.0195 23.3848 79.6128 22.4985 79.8032 21.3413C79.8032 21.9419 80.0962 22.2422 80.6821 22.2422ZM73.519 39.8472H78.2212C78.2065 38.1333 78.7998 36.6685 80.001 35.4526C81.2168 34.2368 82.6597 33.6289 84.3296 33.6289C85.2817 33.6289 86.1387 33.4604 86.9004 33.1235C87.6768 32.7866 88.2334 32.2666 88.5703 31.5635V44H73.519V39.8472ZM84.4175 37.7817C83.8462 37.7817 83.3555 37.9868 82.9453 38.397C82.5498 38.7925 82.352 39.2759 82.352 39.8472H84.4175V37.7817Z" fill="white"/>
</svg>
