<svg width="139" height="106" viewBox="0 0 139 106" fill="none" xmlns="http://www.w3.org/2000/svg">
<path fill-rule="evenodd" clip-rule="evenodd" d="M120.233 97.5527C118.913 97.2152 118.15 95.9683 118.5 94.7506C122.363 80.3297 121.171 67.9479 115.066 57.9281C109.12 48.1724 98.4355 40.8079 83.3952 36.0107C80.0883 34.9251 73.9195 33.8101 67.2579 33.4874C64.9844 37.9472 61.5025 41.9668 57.6709 45.0769C52.0109 49.6687 45.5878 51.9426 41.4541 51.5465C39.1647 51.3265 37.3045 50.461 35.8736 49.0526C34.0452 47.2482 32.7415 44.1674 33.6955 39.3262C35.031 32.6365 40.2617 28.3968 47.6069 26.2696C51.4704 25.1547 55.9538 24.6705 60.5168 24.6119C61.0096 21.6044 60.4373 18.4943 58.1161 15.5749C53.251 9.3694 44.2841 7.55026 35.1741 7.71164C27.2882 7.84367 16.159 8.87059 9.75182 13.5798C7.57368 15.1788 6.12688 17.2327 3.04251 16.4552C-1.71124 15.2815 -0.184945 11.0711 2.80404 8.8706C9.22716 4.14676 19.148 1.94623 27.0656 0.772607C41.629 -1.3986 57.2893 0.743256 65.4137 10.5724C69.1976 15.1935 70.4059 20.1814 69.8812 25.0226C76.7972 25.6681 83.0295 27.0178 86.4955 28.2354C103.444 34.3676 115.177 43.3752 121.409 54.818C127.642 66.2462 128.468 80.1097 123.269 95.9536C122.904 97.1712 121.552 97.8901 120.233 97.5527ZM54.9363 34.0009C52.5197 34.3676 50.278 34.9398 48.3383 35.7906C45.874 36.8762 43.9502 38.4606 43.4573 40.9839C43.3778 41.4094 43.2348 41.9521 43.1553 42.3776C44.1092 42.1575 45.9535 41.6734 47.289 40.9692C50.262 39.3849 53.41 36.8762 55.922 33.8688C55.5723 33.8982 55.2543 33.9422 54.9363 34.0009Z" fill="#4D2C5E"/>
<path fill-rule="evenodd" clip-rule="evenodd" d="M43.0924 42.7589C43.3309 42.8909 43.5217 43.0376 43.3468 43.111C43.1242 43.199 43.0765 43.0523 43.0924 42.7589Z" fill="#4D2C5E"/>
<path fill-rule="evenodd" clip-rule="evenodd" d="M121.536 89.6152C123.157 87.5467 124.938 85.4342 126.766 83.6297C129.628 80.8277 132.538 78.7299 135.336 78.2898C136.64 77.923 138.023 78.6125 138.404 79.8155C138.802 81.0184 138.055 82.2948 136.751 82.6468C136.147 82.8962 135.67 83.395 135.113 83.9232C133.794 85.1555 132.713 86.9159 131.552 88.823C130.073 91.2583 128.754 93.943 127.466 96.3196C126.305 98.4761 125.161 100.369 124.159 101.718C122.585 103.845 120.788 104.872 119.58 105.224C119.262 105.312 113.761 105.386 113.125 100.838C112.903 99.2096 112.569 95.0579 112.553 94.8526C112.489 92.2852 112.314 87.5467 111.249 83.5124C110.915 82.2361 110.565 81.0184 110.009 80.0355C109.882 80.0355 109.755 80.0355 109.627 80.0208C107.688 79.8595 106.273 78.2898 106.432 76.5C106.448 75.5464 107.163 73.9327 107.783 73.2725C108.991 71.9962 110.534 71.8788 112.346 72.6417C114.81 73.6833 116.798 76.0305 118.34 79.038C119.946 82.2067 120.931 86.2411 121.536 89.6152ZM116.543 96.5249C116.225 96.9797 115.939 97.2291 115.685 96.9797C115.399 96.701 116.13 96.5983 116.543 96.5249Z" fill="#4D2C5E"/>
</svg>
