<svg width="25" height="25" viewBox="0 0 25 25" fill="none" xmlns="http://www.w3.org/2000/svg">
<circle cx="12.5" cy="12.5" r="12.5" fill="#D9D9D9" fill-opacity="0.27"/>
<g clip-path="url(#clip0_120_411)">
<mask id="mask0_120_411" style="mask-type:luminance" maskUnits="userSpaceOnUse" x="2" y="2" width="21" height="21">
<path d="M22.6122 10.5909H12.8281V14.6477H18.4599C17.9349 17.225 15.7395 18.7046 12.8281 18.7046C9.39176 18.7046 6.62358 15.9364 6.62358 12.5C6.62358 9.06364 9.39176 6.29546 12.8281 6.29546C14.3077 6.29546 15.644 6.82046 16.694 7.67955L19.7486 4.625C17.8872 3.00227 15.5009 2 12.8281 2C7.0054 2 2.32812 6.67727 2.32812 12.5C2.32812 18.3227 7.0054 23 12.8281 23C18.0781 23 22.8509 19.1818 22.8509 12.5C22.8509 11.8795 22.7554 11.2114 22.6122 10.5909Z" fill="white"/>
</mask>
<g mask="url(#mask0_120_411)">
<path d="M1.37358 18.705V6.2959L9.48722 12.5004L1.37358 18.705Z" fill="#FBBC05"/>
</g>
<mask id="mask1_120_411" style="mask-type:luminance" maskUnits="userSpaceOnUse" x="2" y="2" width="21" height="21">
<path d="M22.6122 10.5909H12.8281V14.6477H18.4599C17.9349 17.225 15.7395 18.7046 12.8281 18.7046C9.39176 18.7046 6.62358 15.9364 6.62358 12.5C6.62358 9.06364 9.39176 6.29546 12.8281 6.29546C14.3077 6.29546 15.644 6.82046 16.694 7.67955L19.7486 4.625C17.8872 3.00227 15.5009 2 12.8281 2C7.0054 2 2.32812 6.67727 2.32812 12.5C2.32812 18.3227 7.0054 23 12.8281 23C18.0781 23 22.8509 19.1818 22.8509 12.5C22.8509 11.8795 22.7554 11.2114 22.6122 10.5909Z" fill="white"/>
</mask>
<g mask="url(#mask1_120_411)">
<path d="M1.37358 6.2959L9.48722 12.5004L12.8281 9.58908L24.2827 7.72772V1.0459H1.37358V6.2959Z" fill="#EA4335"/>
</g>
<mask id="mask2_120_411" style="mask-type:luminance" maskUnits="userSpaceOnUse" x="2" y="2" width="21" height="21">
<path d="M22.6122 10.5909H12.8281V14.6477H18.4599C17.9349 17.225 15.7395 18.7046 12.8281 18.7046C9.39176 18.7046 6.62358 15.9364 6.62358 12.5C6.62358 9.06364 9.39176 6.29546 12.8281 6.29546C14.3077 6.29546 15.644 6.82046 16.694 7.67955L19.7486 4.625C17.8872 3.00227 15.5009 2 12.8281 2C7.0054 2 2.32812 6.67727 2.32812 12.5C2.32812 18.3227 7.0054 23 12.8281 23C18.0781 23 22.8509 19.1818 22.8509 12.5C22.8509 11.8795 22.7554 11.2114 22.6122 10.5909Z" fill="white"/>
</mask>
<g mask="url(#mask2_120_411)">
<path d="M1.37358 18.705L15.6918 7.72772L19.4622 8.20499L24.2827 1.0459V23.955H1.37358V18.705Z" fill="#34A853"/>
</g>
<mask id="mask3_120_411" style="mask-type:luminance" maskUnits="userSpaceOnUse" x="2" y="2" width="21" height="21">
<path d="M22.6122 10.5909H12.8281V14.6477H18.4599C17.9349 17.225 15.7395 18.7046 12.8281 18.7046C9.39176 18.7046 6.62358 15.9364 6.62358 12.5C6.62358 9.06364 9.39176 6.29546 12.8281 6.29546C14.3077 6.29546 15.644 6.82046 16.694 7.67955L19.7486 4.625C17.8872 3.00227 15.5009 2 12.8281 2C7.0054 2 2.32812 6.67727 2.32812 12.5C2.32812 18.3227 7.0054 23 12.8281 23C18.0781 23 22.8509 19.1818 22.8509 12.5C22.8509 11.8795 22.7554 11.2114 22.6122 10.5909Z" fill="white"/>
</mask>
<g mask="url(#mask3_120_411)">
<path d="M24.2827 23.955L9.48722 12.5004L7.57812 11.0686L24.2827 6.2959V23.955Z" fill="#4285F4"/>
</g>
</g>
<defs>
<clipPath id="clip0_120_411">
<rect width="21" height="21" fill="white" transform="translate(2 2)"/>
</clipPath>
</defs>
</svg>
