<svg width="64" height="64" viewBox="0 0 64 64" fill="none" xmlns="http://www.w3.org/2000/svg">
<path d="M45.3333 53.3333C45.3333 48.9151 39.3638 45.3333 32 45.3333C24.6362 45.3333 18.6667 48.9151 18.6667 53.3333M56 45.3343C56 42.0538 52.7091 39.2345 48 38M8 45.3343C8 42.0538 11.2909 39.2345 16 38M48 27.2963C49.6367 25.8314 50.6667 23.7027 50.6667 21.3333C50.6667 16.9151 47.0849 13.3333 42.6667 13.3333C40.6177 13.3333 38.7487 14.1036 37.3333 15.3704M16 27.2963C14.3633 25.8314 13.3333 23.7027 13.3333 21.3333C13.3333 16.9151 16.9151 13.3333 21.3333 13.3333C23.3823 13.3333 25.2513 14.1036 26.6667 15.3704M32 37.3333C27.5817 37.3333 24 33.7516 24 29.3333C24 24.9151 27.5817 21.3333 32 21.3333C36.4183 21.3333 40 24.9151 40 29.3333C40 33.7516 36.4183 37.3333 32 37.3333Z" stroke="#6756C3" stroke-width="5" stroke-linecap="round" stroke-linejoin="round"/>
</svg>
