<svg width="18" height="20" viewBox="0 0 18 20" fill="none" xmlns="http://www.w3.org/2000/svg">
<path d="M0 7.10998V12.88C0 15 0 15 2 16.35L7.5 19.53C8.33 20.01 9.68 20.01 10.5 19.53L16 16.35C18 15 18 15 18 12.89V7.10998C18 4.99998 18 4.99999 16 3.64999L10.5 0.469985C9.68 -0.0100147 8.33 -0.0100147 7.5 0.469985L2 3.64999C0 4.99999 0 4.99998 0 7.10998Z" fill="white" fill-opacity="1"/>
<path d="M9 13C10.6569 13 12 11.6569 12 10C12 8.34315 10.6569 7 9 7C7.34315 7 6 8.34315 6 10C6 11.6569 7.34315 13 9 13Z" fill="#9360E3"/>
</svg>
