<svg width="21" height="20" viewBox="0 0 21 20" fill="none" xmlns="http://www.w3.org/2000/svg">
<path fill-rule="evenodd" clip-rule="evenodd" d="M12 20H3C2.20435 20 1.44129 19.6839 0.87868 19.1213C0.316071 18.5587 0 17.7956 0 17V3C0 2.20435 0.316071 1.44129 0.87868 0.87868C1.44129 0.316071 2.20435 0 3 0H18C18.7956 0 19.5587 0.316071 20.1213 0.87868C20.6839 1.44129 21 2.20435 21 3V17C21 17.7956 20.6839 18.5587 20.1213 19.1213C19.5587 19.6839 18.7956 20 18 20H12ZM3.17 18C3.06 17.687 3 17.35 3 17V3C3 2.65 3.06 2.313 3.17 2H3C2.73478 2 2.48043 2.10536 2.29289 2.29289C2.10536 2.48043 2 2.73478 2 3V17C2 17.2652 2.10536 17.5196 2.29289 17.7071C2.48043 17.8946 2.73478 18 3 18H3.17ZM7 6.015C6.99974 5.88368 7.02534 5.75359 7.07535 5.63216C7.12537 5.51074 7.19881 5.40035 7.29148 5.30731C7.38415 5.21426 7.49424 5.14038 7.61547 5.08989C7.73669 5.03939 7.86668 5.01326 7.998 5.013L15.998 5C16.2632 4.99947 16.5178 5.10432 16.7057 5.29148C16.8936 5.47864 16.9995 5.73278 17 5.998C17.0005 6.26322 16.8957 6.51778 16.7085 6.70569C16.5214 6.8936 16.2672 6.99947 16.002 7L8.002 7.013C7.87068 7.01326 7.74059 6.98766 7.61916 6.93764C7.49774 6.88763 7.38735 6.81419 7.29431 6.72152C7.20126 6.62885 7.12738 6.51876 7.07689 6.39753C7.02639 6.27631 7.00026 6.14632 7 6.015ZM7 10.027C6.99973 9.76196 7.1047 9.50765 7.29183 9.31995C7.47896 9.13226 7.73296 9.02653 7.998 9.026L15.998 9.013C16.2632 9.01247 16.5178 9.11732 16.7057 9.30448C16.8936 9.49164 16.9995 9.74578 17 10.011C17.0005 10.2762 16.8957 10.5308 16.7085 10.7187C16.5214 10.9066 16.2672 11.0125 16.002 11.013L8.002 11.026C7.87068 11.0263 7.74059 11.0007 7.61916 10.9506C7.49774 10.9006 7.38735 10.8272 7.29431 10.7345C7.20126 10.6418 7.12738 10.5318 7.07689 10.4105C7.02639 10.2893 7.00026 10.1583 7 10.027ZM7 14.027C6.99973 13.762 7.1047 13.5076 7.29183 13.32C7.47896 13.1323 7.73296 13.0265 7.998 13.026L15.998 13.013C16.2632 13.0125 16.5178 13.1173 16.7057 13.3045C16.8936 13.4916 16.9995 13.7458 17 14.011C17.0005 14.2762 16.8957 14.5308 16.7085 14.7187C16.5214 14.9066 16.2672 15.0125 16.002 15.013L8.002 15.026C7.87068 15.0263 7.74059 15.0007 7.61916 14.9506C7.49774 14.9006 7.38735 14.8272 7.29431 14.7345C7.20126 14.6418 7.12738 14.5318 7.07689 14.4105C7.02639 14.2893 7.00026 14.1583 7 14.027Z" fill="white"/>
</svg>
